<svg width="276" height="85" viewBox="0 0 276 85" fill="none" xmlns="http://www.w3.org/2000/svg">
<path d="M10.2 14.64L21.92 29H16.44L5.4 15.68V29H0.8V0.999998H5.4V13.56L16.04 0.999998H21.52L10.2 14.64ZM30.9894 23.52L36.1094 9H40.7094L33.0294 29.64C31.1094 34.8133 27.856 37.2667 23.2694 37V32.96C24.6027 33.04 25.6827 32.76 26.5094 32.12C27.336 31.48 28.0294 30.4533 28.5894 29.04L28.7894 28.64L20.3094 9H25.0294L30.9894 23.52ZM47.4906 5.2C46.9573 5.73333 46.3173 6 45.5706 6C44.824 6 44.1706 5.73333 43.6106 5.2C43.0773 4.64 42.8106 3.98666 42.8106 3.24C42.8106 2.49333 43.0773 1.85333 43.6106 1.32C44.144 0.759998 44.7973 0.479998 45.5706 0.479998C46.344 0.479998 46.9973 0.759998 47.5306 1.32C48.064 1.85333 48.3306 2.49333 48.3306 3.24C48.3306 3.98666 48.0506 4.64 47.4906 5.2ZM47.7306 29H43.4106V9H47.7306V29ZM60.7466 24.2L66.3066 9H71.0266L63.2266 29H58.2266L50.4266 9H55.1466L60.7466 24.2ZM5.4 49V72.6H16.8V77H0.8V49H5.4ZM33.1797 67.72V57H37.4997V77H33.1797V74.44C31.8464 76.4933 29.7797 77.52 26.9797 77.52C24.6597 77.52 22.793 76.7867 21.3797 75.32C19.993 73.8267 19.2997 71.8133 19.2997 69.28V57H23.6197V68.84C23.6197 70.3333 24.0197 71.48 24.8197 72.28C25.6197 73.08 26.713 73.48 28.0997 73.48C29.673 73.48 30.913 73 31.8197 72.04C32.7264 71.0533 33.1797 69.6133 33.1797 67.72ZM52.9513 66.76L60.4313 77H55.4313L50.4713 70.16L45.4713 77H40.4313L47.9513 66.72L40.8313 57H45.8313L50.4313 63.32L55.0313 57H60.0713L52.9513 66.76ZM81.2072 68.84H65.2872C65.6072 70.3333 66.3272 71.4933 67.4472 72.32C68.5939 73.1467 70.0072 73.56 71.6872 73.56C73.9539 73.56 75.6739 72.7333 76.8472 71.08L80.4072 73.16C78.4605 76.0667 75.5405 77.52 71.6472 77.52C68.4205 77.52 65.7939 76.5333 63.7672 74.56C61.7672 72.56 60.7672 70.04 60.7672 67C60.7672 64.04 61.7539 61.5467 63.7272 59.52C65.6739 57.4933 68.2072 56.48 71.3272 56.48C74.2339 56.48 76.6339 57.5067 78.5272 59.56C80.4205 61.6133 81.3672 64.1067 81.3672 67.04C81.3672 67.5733 81.3139 68.1733 81.2072 68.84ZM65.2472 65.32H77.0072C76.7139 63.7467 76.0472 62.5333 75.0072 61.68C73.9939 60.8267 72.7539 60.4 71.2872 60.4C69.6872 60.4 68.3539 60.84 67.2872 61.72C66.2205 62.6 65.5405 63.8 65.2472 65.32ZM101.928 62.48C103.155 63.12 104.115 64.0133 104.808 65.16C105.502 66.28 105.848 67.56 105.848 69C105.848 71.2933 105.035 73.2 103.408 74.72C101.782 76.24 99.7951 77 97.4484 77H85.4484V49H96.5684C98.8618 49 100.795 49.7467 102.368 51.24C103.968 52.7333 104.768 54.5733 104.768 56.76C104.768 59.16 103.822 61.0667 101.928 62.48ZM96.5684 53.32H90.0484V60.68H96.5684C97.5818 60.68 98.4351 60.3333 99.1284 59.64C99.8218 58.92 100.168 58.04 100.168 57C100.168 55.96 99.8218 55.0933 99.1284 54.4C98.4351 53.68 97.5818 53.32 96.5684 53.32ZM90.0484 72.68H97.4484C98.5151 72.68 99.4084 72.3067 100.128 71.56C100.875 70.7867 101.248 69.8533 101.248 68.76C101.248 67.6667 100.875 66.7467 100.128 66C99.4084 65.2267 98.5151 64.84 97.4484 64.84H90.0484V72.68ZM126.698 74.48C124.671 76.5067 122.178 77.52 119.218 77.52C116.258 77.52 113.764 76.5067 111.738 74.48C109.684 72.4267 108.658 69.9333 108.658 67C108.658 64.0667 109.684 61.5733 111.738 59.52C113.764 57.4933 116.258 56.48 119.218 56.48C122.178 56.48 124.671 57.4933 126.698 59.52C128.751 61.5733 129.778 64.0667 129.778 67C129.778 69.9333 128.751 72.4267 126.698 74.48ZM112.978 67C112.978 68.8133 113.578 70.32 114.778 71.52C115.978 72.72 117.458 73.32 119.218 73.32C120.978 73.32 122.458 72.72 123.658 71.52C124.858 70.32 125.458 68.8133 125.458 67C125.458 65.1867 124.858 63.68 123.658 62.48C122.458 61.28 120.978 60.68 119.218 60.68C117.458 60.68 115.978 61.28 114.778 62.48C113.578 63.68 112.978 65.1867 112.978 67ZM147.164 67.72V57H151.484V77H147.164V74.44C145.831 76.4933 143.764 77.52 140.964 77.52C138.644 77.52 136.777 76.7867 135.364 75.32C133.977 73.8267 133.284 71.8133 133.284 69.28V57H137.604V68.84C137.604 70.3333 138.004 71.48 138.804 72.28C139.604 73.08 140.697 73.48 142.084 73.48C143.657 73.48 144.897 73 145.804 72.04C146.711 71.0533 147.164 69.6133 147.164 67.72ZM172.376 59.88V57H176.696V85H172.376V74.16C170.749 76.4 168.416 77.52 165.376 77.52C162.629 77.52 160.282 76.5067 158.336 74.48C156.389 72.4533 155.416 69.96 155.416 67C155.416 64.0667 156.389 61.5867 158.336 59.56C160.309 57.5067 162.656 56.48 165.376 56.48C168.416 56.48 170.749 57.6133 172.376 59.88ZM161.536 71.6C162.736 72.8 164.242 73.4 166.056 73.4C167.869 73.4 169.376 72.8 170.576 71.6C171.776 70.3733 172.376 68.84 172.376 67C172.376 65.16 171.776 63.64 170.576 62.44C169.376 61.2133 167.869 60.6 166.056 60.6C164.242 60.6 162.736 61.2133 161.536 62.44C160.336 63.64 159.736 65.16 159.736 67C159.736 68.8133 160.336 70.3467 161.536 71.6ZM195.211 67.72V57H199.531V77H195.211V74.44C193.878 76.4933 191.811 77.52 189.011 77.52C186.691 77.52 184.824 76.7867 183.411 75.32C182.024 73.8267 181.331 71.8133 181.331 69.28V57H185.651V68.84C185.651 70.3333 186.051 71.48 186.851 72.28C187.651 73.08 188.744 73.48 190.131 73.48C191.704 73.48 192.944 73 193.851 72.04C194.758 71.0533 195.211 69.6133 195.211 67.72ZM223.903 68.84H207.983C208.303 70.3333 209.023 71.4933 210.143 72.32C211.289 73.1467 212.703 73.56 214.383 73.56C216.649 73.56 218.369 72.7333 219.543 71.08L223.103 73.16C221.156 76.0667 218.236 77.52 214.343 77.52C211.116 77.52 208.489 76.5333 206.463 74.56C204.463 72.56 203.463 70.04 203.463 67C203.463 64.04 204.449 61.5467 206.423 59.52C208.369 57.4933 210.903 56.48 214.023 56.48C216.929 56.48 219.329 57.5067 221.223 59.56C223.116 61.6133 224.063 64.1067 224.063 67.04C224.063 67.5733 224.009 68.1733 223.903 68.84ZM207.942 65.32H219.703C219.409 63.7467 218.743 62.5333 217.703 61.68C216.689 60.8267 215.449 60.4 213.983 60.4C212.383 60.4 211.049 60.84 209.983 61.72C208.916 62.6 208.236 63.8 207.942 65.32ZM238.399 57V61.16H233.439V70.76C233.439 71.5867 233.625 72.1867 233.999 72.56C234.372 72.9067 234.919 73.1067 235.639 73.16C236.385 73.1867 237.305 73.1733 238.399 73.12V77C235.092 77.4 232.719 77.12 231.279 76.16C229.839 75.1733 229.119 73.3733 229.119 70.76V61.16H225.439V57H229.119V52.68L233.439 51.4V57H238.399ZM245.455 62.52C245.455 63.1333 245.775 63.64 246.415 64.04C247.055 64.4133 247.988 64.7733 249.215 65.12C250.148 65.3333 250.961 65.56 251.655 65.8C252.348 66.04 253.081 66.4 253.855 66.88C254.628 67.3333 255.215 67.9467 255.615 68.72C256.041 69.4667 256.241 70.3467 256.215 71.36C256.215 73.28 255.468 74.7867 253.975 75.88C252.481 76.9733 250.628 77.52 248.415 77.52C246.441 77.52 244.748 77.1067 243.335 76.28C241.921 75.4533 240.895 74.3067 240.255 72.84L243.975 70.68C244.641 72.6 246.121 73.56 248.415 73.56C250.681 73.56 251.815 72.8133 251.815 71.32C251.815 70.2267 250.548 69.3733 248.015 68.76C247.055 68.52 246.241 68.28 245.575 68.04C244.935 67.8 244.215 67.4533 243.415 67C242.641 66.5467 242.041 65.9467 241.615 65.2C241.215 64.4533 241.028 63.5867 241.055 62.6C241.055 60.76 241.748 59.28 243.135 58.16C244.548 57.04 246.295 56.48 248.375 56.48C250.028 56.48 251.495 56.8533 252.775 57.6C254.081 58.32 255.081 59.3333 255.775 60.64L252.135 62.68C251.468 61.16 250.215 60.4 248.375 60.4C247.521 60.4 246.815 60.5867 246.255 60.96C245.721 61.3333 245.455 61.8533 245.455 62.52ZM258.332 55.6C258.332 53.2 259.18 51.152 260.876 49.456C262.572 47.76 264.62 46.912 267.02 46.912C269.42 46.912 271.468 47.76 273.164 49.456C274.86 51.152 275.708 53.2 275.708 55.6C275.708 58 274.86 60.048 273.164 61.744C271.468 63.44 269.42 64.288 267.02 64.288C264.62 64.288 262.572 63.44 260.876 61.744C259.18 60.048 258.332 58 258.332 55.6ZM267.02 63.52C269.212 63.52 271.06 62.752 272.564 61.216C274.1 59.648 274.868 57.776 274.868 55.6C274.868 53.408 274.1 51.544 272.564 50.008C271.06 48.456 269.212 47.68 267.02 47.68C264.86 47.68 263.012 48.456 261.476 50.008C259.94 51.544 259.172 53.408 259.172 55.6C259.172 57.776 259.94 59.64 261.476 61.192C263.012 62.744 264.86 63.52 267.02 63.52ZM270.668 54.064C270.668 55.264 270.196 56.144 269.252 56.704L271.076 60.04H268.676L267.26 57.232H266.18V60.04H263.972V51.16H267.26C268.252 51.16 269.068 51.44 269.708 52C270.348 52.544 270.668 53.232 270.668 54.064ZM267.14 53.2H266.18V55.312H267.14C267.556 55.312 267.876 55.216 268.1 55.024C268.34 54.832 268.46 54.576 268.46 54.256C268.46 53.552 268.02 53.2 267.14 53.2Z" fill="#121212"/>
</svg>
