<svg width="25" height="24" viewBox="0 0 25 24" fill="none" xmlns="http://www.w3.org/2000/svg">
<path d="M6.8 21.5C6.3 21.5 5.875 21.325 5.525 20.975C5.175 20.625 5 20.2 5 19.7V10.3C5 9.8 5.175 9.375 5.525 9.025C5.875 8.675 6.3 8.5 6.8 8.5H8V6.5C8 5.25 8.43733 4.18733 9.312 3.312C10.1873 2.43733 11.25 2 12.5 2C13.75 2 14.8127 2.43733 15.688 3.312C16.5627 4.18733 17 5.25 17 6.5V8.5H18.2C18.7 8.5 19.125 8.675 19.475 9.025C19.825 9.375 20 9.8 20 10.3V19.7C20 20.2 19.825 20.625 19.475 20.975C19.125 21.325 18.7 21.5 18.2 21.5H6.8ZM6.8 20H18.2C18.2833 20 18.3543 19.971 18.413 19.913C18.471 19.8543 18.5 19.7833 18.5 19.7V10.3C18.5 10.2167 18.471 10.1457 18.413 10.087C18.3543 10.029 18.2833 10 18.2 10H6.8C6.71667 10 6.646 10.029 6.588 10.087C6.52933 10.1457 6.5 10.2167 6.5 10.3V19.7C6.5 19.7833 6.52933 19.8543 6.588 19.913C6.646 19.971 6.71667 20 6.8 20ZM12.5 16.75C12.9833 16.75 13.396 16.5793 13.738 16.238C14.0793 15.896 14.25 15.4833 14.25 15C14.25 14.5167 14.0793 14.104 13.738 13.762C13.396 13.4207 12.9833 13.25 12.5 13.25C12.0167 13.25 11.604 13.4207 11.262 13.762C10.9207 14.104 10.75 14.5167 10.75 15C10.75 15.4833 10.9207 15.896 11.262 16.238C11.604 16.5793 12.0167 16.75 12.5 16.75ZM9.5 8.5H15.5V6.5C15.5 5.66667 15.2083 4.95833 14.625 4.375C14.0417 3.79167 13.3333 3.5 12.5 3.5C11.6667 3.5 10.9583 3.79167 10.375 4.375C9.79167 4.95833 9.5 5.66667 9.5 6.5V8.5ZM6.5 20V10V20Z" fill="#121212"/>
</svg>
