<svg width="77" height="50" viewBox="0 0 77 50" fill="none" xmlns="http://www.w3.org/2000/svg">
<path d="M10.9384 12.2686V9.67273H19.8551C19.9461 10.1307 20 10.6738 20 11.2639C20 13.2099 19.4539 15.6193 17.6928 17.3354C15.9801 19.0732 13.7936 20 10.892 20C5.51779 20 1 15.7369 1 10.5C1 5.26305 5.51779 1 10.892 1C13.8642 1 15.9801 2.135 17.5739 3.61757L15.6958 5.44769C14.5552 4.40501 13.0097 3.59404 10.892 3.59404C6.96862 3.59404 3.90164 6.67502 3.90164 10.5C3.90164 14.325 6.96862 17.406 10.892 17.406C13.4369 17.406 14.8859 16.4103 15.8147 15.5052C16.5708 14.7685 17.0686 13.7131 17.2618 12.2686H10.9384Z" fill="#4285F4"/>
<path d="M33.5 14C33.5 17.4555 30.806 20 27.5 20C24.194 20 21.5 17.4537 21.5 14C21.5 10.5232 24.194 8 27.5 8C30.806 8 33.5 10.5232 33.5 14ZM30.8732 14C30.8732 11.8408 29.3113 10.3634 27.5 10.3634C25.6887 10.3634 24.1268 11.8408 24.1268 14C24.1268 16.1361 25.6887 17.6366 27.5 17.6366C29.3113 17.6384 30.8732 16.1379 30.8732 14Z" fill="#EA4335"/>
<path d="M46.5 14C46.5 17.4555 43.806 20 40.5 20C37.194 20 34.5 17.4537 34.5 14C34.5 10.5232 37.194 8 40.5 8C43.806 8 46.5 10.5232 46.5 14ZM43.8732 14C43.8732 11.8408 42.3113 10.3634 40.5 10.3634C38.6887 10.3634 37.1268 11.8408 37.1268 14C37.1268 16.1361 38.6887 17.6366 40.5 17.6366C42.3113 17.6384 43.8732 16.1379 43.8732 14Z" fill="#FBBC05"/>
<path d="M59.5 8.37496V19.5301C59.5 24.1178 56.7728 26 53.5472 26C50.5125 26 48.6857 23.9763 47.9984 22.3294L50.3939 21.3405C50.8201 22.3515 51.865 23.5517 53.5472 23.5517C55.6112 23.5517 56.8914 22.2816 56.8914 19.905V19.0117H56.7969C56.1799 19.7653 54.9942 20.4234 53.5009 20.4234C50.3698 20.4234 47.5 17.7178 47.5 14.2347C47.5 10.7295 50.3698 8 53.5009 8C54.9942 8 56.1799 8.65802 56.7969 9.38773H56.8914V8.37312H59.5V8.37496ZM57.0804 14.2365C57.0804 12.0474 55.6093 10.4483 53.7362 10.4483C51.839 10.4483 50.2494 12.0474 50.2494 14.2365C50.2494 16.4017 51.839 17.9769 53.7362 17.9769C55.6112 17.9788 57.0804 16.4017 57.0804 14.2365Z" fill="#4285F4"/>
<path d="M63.5 2V20H60.5V2H63.5Z" fill="#34A853"/>
<path d="M73.3543 15.9763L75.3871 17.34C74.7324 18.3167 73.1514 20 70.4182 20C67.0303 20 64.5 17.3631 64.5 14C64.5 10.4309 67.0515 8 70.1235 8C73.2185 8 74.7307 10.4771 75.2283 11.8177L75.5 12.4996L67.5261 15.8183C68.1367 17.0222 69.0842 17.6366 70.4164 17.6366C71.7504 17.6366 72.6768 16.976 73.3543 15.9763ZM67.0974 13.8171L72.428 11.5904C72.1351 10.8411 71.2528 10.3173 70.2153 10.3173C68.8813 10.3173 67.0303 11.4981 67.0974 13.8171Z" fill="#EA4335"/>
<path d="M20.616 46H19.38L17.496 42.784H15.516V46H14.4V37.6H17.76C18.48 37.6 19.096 37.856 19.608 38.368C20.12 38.872 20.376 39.484 20.376 40.204C20.376 40.748 20.212 41.244 19.884 41.692C19.548 42.148 19.132 42.464 18.636 42.64L20.616 46ZM17.76 38.644H15.516V41.776H17.76C18.176 41.776 18.528 41.624 18.816 41.32C19.112 41.016 19.26 40.644 19.26 40.204C19.26 39.764 19.112 39.396 18.816 39.1C18.528 38.796 18.176 38.644 17.76 38.644ZM22.8519 42.28V44.944H26.7519V46H21.7359V37.6H26.6919V38.656H22.8519V41.236H26.3919V42.28H22.8519ZM31.5552 46H30.2952L27.2952 37.6H28.4952L30.9312 44.608L33.3552 37.6H34.5672L31.5552 46ZM35.5523 46V37.6H36.6683V46H35.5523ZM39.5863 42.28V44.944H43.4863V46H38.4703V37.6H43.4263V38.656H39.5863V41.236H43.1263V42.28H39.5863ZM47.9416 46H46.6456L44.2336 37.6H45.4096L47.3296 44.512L49.3696 37.6H50.4976L52.5376 44.512L54.4576 37.6H55.6336L53.2216 46H51.9256L49.9336 39.292L47.9416 46ZM59.3112 46.156C58.5272 46.156 57.8552 45.976 57.2952 45.616C56.7432 45.248 56.3552 44.74 56.1312 44.092L57.0912 43.54C57.4112 44.556 58.1592 45.064 59.3352 45.064C59.9032 45.064 60.3392 44.948 60.6432 44.716C60.9552 44.484 61.1112 44.168 61.1112 43.768C61.1112 43.376 60.9592 43.076 60.6552 42.868C60.3832 42.684 59.8752 42.472 59.1312 42.232L58.3272 41.968C58.1512 41.896 57.9192 41.792 57.6312 41.656C57.3512 41.512 57.1472 41.368 57.0192 41.224C56.6672 40.84 56.4912 40.372 56.4912 39.82C56.4912 39.084 56.7472 38.508 57.2592 38.092C57.7712 37.66 58.3952 37.444 59.1312 37.444C59.7872 37.444 60.3632 37.608 60.8592 37.936C61.3552 38.264 61.7272 38.712 61.9752 39.28L61.0392 39.82C60.6792 38.956 60.0432 38.524 59.1312 38.524C58.6752 38.524 58.3072 38.636 58.0272 38.86C57.7472 39.084 57.6072 39.388 57.6072 39.772C57.6072 40.14 57.7392 40.42 58.0032 40.612C58.2752 40.812 58.7312 41.012 59.3712 41.212L59.8632 41.368C60.1352 41.472 60.2832 41.528 60.3072 41.536C60.5632 41.632 60.8432 41.764 61.1472 41.932C61.3632 42.052 61.5792 42.236 61.7952 42.484C62.0752 42.764 62.2152 43.184 62.2152 43.744C62.2152 44.48 61.9472 45.068 61.4112 45.508C60.8672 45.94 60.1672 46.156 59.3112 46.156Z" fill="#121212"/>
</svg>
