<svg width="48" height="48" viewBox="0 0 48 48" fill="none" xmlns="http://www.w3.org/2000/svg">
<mask id="path-1-inside-1_3514_2838" fill="white">
<path d="M0 0H48V48H0V0Z"/>
</mask>
<path d="M1 48V0H-1V48H1Z" fill="#121212" mask="url(#path-1-inside-1_3514_2838)"/>
<mask id="path-3-inside-2_3514_2838" fill="white">
<path d="M0 0H48V48H0V0Z"/>
</mask>
<path d="M47 0V48H49V0H47Z" fill="#121212" mask="url(#path-3-inside-2_3514_2838)"/>
<path d="M18.3 33.5C17.8 33.5 17.375 33.325 17.025 32.975C16.675 32.625 16.5 32.2 16.5 31.7V20.3C16.5 19.8 16.675 19.375 17.025 19.025C17.375 18.675 17.8 18.5 18.3 18.5H20.25V18.25C20.25 17.2167 20.6167 16.3333 21.35 15.6C22.0833 14.8667 22.9667 14.5 24 14.5C25.0333 14.5 25.9167 14.8667 26.65 15.6C27.3833 16.3333 27.75 17.2167 27.75 18.25V18.5H29.7C30.2 18.5 30.625 18.675 30.975 19.025C31.325 19.375 31.5 19.8 31.5 20.3V31.7C31.5 32.2 31.325 32.625 30.975 32.975C30.625 33.325 30.2 33.5 29.7 33.5H18.3ZM18.3 32H29.7C29.7667 32 29.8333 31.9667 29.9 31.9C29.9667 31.8333 30 31.7667 30 31.7V20.3C30 20.2333 29.9667 20.1667 29.9 20.1C29.8333 20.0333 29.7667 20 29.7 20H27.75V22.25C27.75 22.4667 27.6793 22.6457 27.538 22.787C27.396 22.929 27.2167 23 27 23C26.7833 23 26.6043 22.929 26.463 22.787C26.321 22.6457 26.25 22.4667 26.25 22.25V20H21.75V22.25C21.75 22.4667 21.6793 22.6457 21.538 22.787C21.396 22.929 21.2167 23 21 23C20.7833 23 20.6043 22.929 20.463 22.787C20.321 22.6457 20.25 22.4667 20.25 22.25V20H18.3C18.2333 20 18.1667 20.0333 18.1 20.1C18.0333 20.1667 18 20.2333 18 20.3V31.7C18 31.7667 18.0333 31.8333 18.1 31.9C18.1667 31.9667 18.2333 32 18.3 32ZM21.75 18.5H26.25V18.25C26.25 17.6167 26.0333 17.0833 25.6 16.65C25.1667 16.2167 24.6333 16 24 16C23.3667 16 22.8333 16.2167 22.4 16.65C21.9667 17.0833 21.75 17.6167 21.75 18.25V18.5ZM18 32V20V32Z" fill="#121212"/>
</svg>
