<svg width="139" height="24" viewBox="0 0 139 24" fill="none" xmlns="http://www.w3.org/2000/svg">
<path d="M4.7 19.168C3.804 19.168 3.034 18.958 2.39 18.538C1.75533 18.1087 1.312 17.5207 1.06 16.774L1.9 16.284C2.07733 16.9 2.404 17.376 2.88 17.712C3.36533 18.048 3.97667 18.216 4.714 18.216C5.43267 18.216 5.99733 18.0573 6.408 17.74C6.81867 17.4227 7.024 16.9933 7.024 16.452C7.024 15.9387 6.83733 15.5513 6.464 15.29C6.1 15.0287 5.484 14.758 4.616 14.478C3.58 14.1327 2.908 13.862 2.6 13.666C1.85333 13.218 1.48 12.5693 1.48 11.72C1.48 10.8893 1.76933 10.236 2.348 9.76C2.91733 9.27467 3.63133 9.032 4.49 9.032C5.22733 9.032 5.88067 9.228 6.45 9.62C7.01933 10.0027 7.444 10.5113 7.724 11.146L6.898 11.608C6.45 10.5253 5.64733 9.984 4.49 9.984C3.874 9.984 3.37933 10.138 3.006 10.446C2.642 10.7447 2.46 11.1553 2.46 11.678C2.46 12.1727 2.628 12.5367 2.964 12.77C3.30933 13.0127 3.86467 13.26 4.63 13.512L5.386 13.778C5.54467 13.8247 5.76867 13.9087 6.058 14.03C6.37533 14.1513 6.59467 14.254 6.716 14.338C7.21067 14.6367 7.52333 14.912 7.654 15.164C7.88733 15.5373 8.004 15.9573 8.004 16.424C8.004 17.2547 7.70067 17.922 7.094 18.426C6.48733 18.9207 5.68933 19.168 4.7 19.168ZM12.9171 11.832C13.9625 11.832 14.7978 12.2007 15.4231 12.938C16.0671 13.666 16.3891 14.5293 16.3891 15.528C16.3891 15.5747 16.3798 15.7193 16.3611 15.962H10.2151C10.3085 16.662 10.6071 17.222 11.1111 17.642C11.6151 18.062 12.2451 18.272 13.0011 18.272C14.0651 18.272 14.8165 17.8753 15.2551 17.082L16.0671 17.558C15.7591 18.062 15.3345 18.4587 14.7931 18.748C14.2611 19.028 13.6591 19.168 12.9871 19.168C11.8858 19.168 10.9898 18.8227 10.2991 18.132C9.60846 17.4413 9.26313 16.564 9.26313 15.5C9.26313 14.4453 9.60379 13.5727 10.2851 12.882C10.9665 12.182 11.8438 11.832 12.9171 11.832ZM12.9171 12.728C12.1891 12.728 11.5778 12.9427 11.0831 13.372C10.5978 13.8013 10.3085 14.366 10.2151 15.066H15.4371C15.3345 14.3193 15.0498 13.7453 14.5831 13.344C14.0978 12.9333 13.5425 12.728 12.9171 12.728ZM21.1209 19.168C20.0662 19.168 19.1889 18.818 18.4889 18.118C17.7889 17.3993 17.4389 16.5267 17.4389 15.5C17.4389 14.464 17.7889 13.596 18.4889 12.896C19.1889 12.1867 20.0662 11.832 21.1209 11.832C21.8116 11.832 22.4322 12 22.9829 12.336C23.5336 12.6627 23.9349 13.106 24.1869 13.666L23.4309 14.1C23.2442 13.68 22.9409 13.3487 22.5209 13.106C22.1102 12.854 21.6436 12.728 21.1209 12.728C20.3462 12.728 19.6929 12.9987 19.1609 13.54C18.6289 14.072 18.3629 14.7253 18.3629 15.5C18.3629 16.2653 18.6289 16.9233 19.1609 17.474C19.6929 18.006 20.3462 18.272 21.1209 18.272C21.6342 18.272 22.0962 18.1507 22.5069 17.908C22.9269 17.6653 23.2536 17.3293 23.4869 16.9L24.2569 17.348C23.9676 17.908 23.5429 18.3513 22.9829 18.678C22.4229 19.0047 21.8022 19.168 21.1209 19.168ZM30.5115 15.668V12H31.4355V19H30.5115V17.908C29.9888 18.748 29.2048 19.168 28.1595 19.168C27.3195 19.168 26.6522 18.9113 26.1575 18.398C25.6628 17.8753 25.4155 17.1753 25.4155 16.298V12H26.3395V16.298C26.3395 16.9233 26.5028 17.4087 26.8295 17.754C27.1655 18.0993 27.6368 18.272 28.2435 18.272C28.9435 18.272 29.4942 18.0527 29.8955 17.614C30.3062 17.1753 30.5115 16.5267 30.5115 15.668ZM34.3142 12V13.162C34.7435 12.3127 35.4808 11.888 36.5262 11.888V12.784C35.8542 12.784 35.3175 12.98 34.9162 13.372C34.5148 13.7547 34.3142 14.3333 34.3142 15.108V19H33.3902V12H34.3142ZM40.6027 11.832C41.648 11.832 42.4833 12.2007 43.1087 12.938C43.7527 13.666 44.0747 14.5293 44.0747 15.528C44.0747 15.5747 44.0653 15.7193 44.0467 15.962H37.9007C37.994 16.662 38.2927 17.222 38.7967 17.642C39.3007 18.062 39.9307 18.272 40.6867 18.272C41.7507 18.272 42.502 17.8753 42.9407 17.082L43.7527 17.558C43.4447 18.062 43.02 18.4587 42.4787 18.748C41.9467 19.028 41.3447 19.168 40.6727 19.168C39.5713 19.168 38.6753 18.8227 37.9847 18.132C37.294 17.4413 36.9487 16.564 36.9487 15.5C36.9487 14.4453 37.2893 13.5727 37.9707 12.882C38.652 12.182 39.5293 11.832 40.6027 11.832ZM40.6027 12.728C39.8747 12.728 39.2633 12.9427 38.7687 13.372C38.2833 13.8013 37.994 14.366 37.9007 15.066H43.1227C43.02 14.3193 42.7353 13.7453 42.2687 13.344C41.7833 12.9333 41.228 12.728 40.6027 12.728ZM53.7625 19.168C52.2691 19.168 51.0418 18.678 50.0805 17.698C49.1098 16.7087 48.6245 15.5093 48.6245 14.1C48.6245 12.6907 49.1098 11.4913 50.0805 10.502C51.0418 9.522 52.2691 9.032 53.7625 9.032C54.6585 9.032 55.4845 9.25133 56.2405 9.69C56.9965 10.1193 57.5845 10.7027 58.0045 11.44L57.1365 11.944C56.8285 11.3467 56.3711 10.8707 55.7645 10.516C55.1578 10.1613 54.4905 9.984 53.7625 9.984C52.5305 9.984 51.5318 10.3807 50.7665 11.174C49.9918 11.9767 49.6045 12.952 49.6045 14.1C49.6045 15.248 49.9918 16.2233 50.7665 17.026C51.5318 17.8193 52.5305 18.216 53.7625 18.216C54.4905 18.216 55.1578 18.0387 55.7645 17.684C56.3711 17.3293 56.8285 16.8533 57.1365 16.256L58.0045 16.746C57.6031 17.4833 57.0198 18.0713 56.2545 18.51C55.4891 18.9487 54.6585 19.168 53.7625 19.168ZM62.7521 11.832C63.5921 11.832 64.2594 12.0933 64.7541 12.616C65.2488 13.1293 65.4961 13.8247 65.4961 14.702V19H64.5721V14.702C64.5721 14.0767 64.4041 13.5913 64.0681 13.246C63.7414 12.9007 63.2748 12.728 62.6681 12.728C61.9681 12.728 61.4128 12.9473 61.0021 13.386C60.6008 13.8247 60.4001 14.4733 60.4001 15.332V19H59.4761V9.2H60.4001V13.092C60.9228 12.252 61.7068 11.832 62.7521 11.832ZM70.5167 11.832C71.5621 11.832 72.3974 12.2007 73.0227 12.938C73.6667 13.666 73.9887 14.5293 73.9887 15.528C73.9887 15.5747 73.9794 15.7193 73.9607 15.962H67.8147C67.9081 16.662 68.2067 17.222 68.7107 17.642C69.2147 18.062 69.8447 18.272 70.6007 18.272C71.6647 18.272 72.4161 17.8753 72.8547 17.082L73.6667 17.558C73.3587 18.062 72.9341 18.4587 72.3927 18.748C71.8607 19.028 71.2587 19.168 70.5867 19.168C69.4854 19.168 68.5894 18.8227 67.8987 18.132C67.2081 17.4413 66.8627 16.564 66.8627 15.5C66.8627 14.4453 67.2034 13.5727 67.8847 12.882C68.5661 12.182 69.4434 11.832 70.5167 11.832ZM70.5167 12.728C69.7887 12.728 69.1774 12.9427 68.6827 13.372C68.1974 13.8013 67.9081 14.366 67.8147 15.066H73.0367C72.9341 14.3193 72.6494 13.7453 72.1827 13.344C71.6974 12.9333 71.1421 12.728 70.5167 12.728ZM78.7205 19.168C77.6658 19.168 76.7885 18.818 76.0885 18.118C75.3885 17.3993 75.0385 16.5267 75.0385 15.5C75.0385 14.464 75.3885 13.596 76.0885 12.896C76.7885 12.1867 77.6658 11.832 78.7205 11.832C79.4112 11.832 80.0318 12 80.5825 12.336C81.1332 12.6627 81.5345 13.106 81.7865 13.666L81.0305 14.1C80.8438 13.68 80.5405 13.3487 80.1205 13.106C79.7098 12.854 79.2432 12.728 78.7205 12.728C77.9458 12.728 77.2925 12.9987 76.7605 13.54C76.2285 14.072 75.9625 14.7253 75.9625 15.5C75.9625 16.2653 76.2285 16.9233 76.7605 17.474C77.2925 18.006 77.9458 18.272 78.7205 18.272C79.2338 18.272 79.6958 18.1507 80.1065 17.908C80.5265 17.6653 80.8532 17.3293 81.0865 16.9L81.8565 17.348C81.5672 17.908 81.1425 18.3513 80.5825 18.678C80.0225 19.0047 79.4018 19.168 78.7205 19.168ZM85.0871 15.36L88.8391 19H87.6071L84.1071 15.626V19H83.1831V9.2H84.1071V15.094L87.4391 12H88.6991L85.0871 15.36ZM95.2698 18.118C94.5512 18.818 93.6832 19.168 92.6658 19.168C91.6298 19.168 90.7572 18.818 90.0478 18.118C89.3385 17.4087 88.9838 16.536 88.9838 15.5C88.9838 14.464 89.3385 13.596 90.0478 12.896C90.7572 12.1867 91.6298 11.832 92.6658 11.832C93.6925 11.832 94.5605 12.1867 95.2698 12.896C95.9885 13.596 96.3478 14.464 96.3478 15.5C96.3478 16.5267 95.9885 17.3993 95.2698 18.118ZM90.7058 17.474C91.2378 18.006 91.8912 18.272 92.6658 18.272C93.4405 18.272 94.0938 18.006 94.6258 17.474C95.1578 16.9233 95.4238 16.2653 95.4238 15.5C95.4238 14.7253 95.1578 14.072 94.6258 13.54C94.0938 12.9987 93.4405 12.728 92.6658 12.728C91.8912 12.728 91.2378 12.9987 90.7058 13.54C90.1738 14.072 89.9078 14.7253 89.9078 15.5C89.9078 16.2653 90.1738 16.9233 90.7058 17.474ZM102.822 15.668V12H103.746V19H102.822V17.908C102.299 18.748 101.515 19.168 100.47 19.168C99.6301 19.168 98.9627 18.9113 98.4681 18.398C97.9734 17.8753 97.7261 17.1753 97.7261 16.298V12H98.6501V16.298C98.6501 16.9233 98.8134 17.4087 99.1401 17.754C99.4761 18.0993 99.9474 18.272 100.554 18.272C101.254 18.272 101.805 18.0527 102.206 17.614C102.617 17.1753 102.822 16.5267 102.822 15.668ZM109.411 12V12.896H107.395V17.138C107.395 17.5207 107.469 17.796 107.619 17.964C107.768 18.1227 107.992 18.2067 108.291 18.216C108.589 18.216 108.963 18.2067 109.411 18.188V19C108.412 19.1493 107.67 19.0793 107.185 18.79C106.709 18.4913 106.471 17.9407 106.471 17.138V12.896H105.001V12H106.471V10.32L107.395 10.04V12H109.411Z" fill="#121212"/>
<path d="M120.8 21.5C120.3 21.5 119.875 21.325 119.525 20.975C119.175 20.625 119 20.2 119 19.7V10.3C119 9.8 119.175 9.375 119.525 9.025C119.875 8.675 120.3 8.5 120.8 8.5H122V6.5C122 5.25 122.437 4.18733 123.312 3.312C124.187 2.43733 125.25 2 126.5 2C127.75 2 128.813 2.43733 129.688 3.312C130.563 4.18733 131 5.25 131 6.5V8.5H132.2C132.7 8.5 133.125 8.675 133.475 9.025C133.825 9.375 134 9.8 134 10.3V19.7C134 20.2 133.825 20.625 133.475 20.975C133.125 21.325 132.7 21.5 132.2 21.5H120.8ZM120.8 20H132.2C132.283 20 132.354 19.971 132.413 19.913C132.471 19.8543 132.5 19.7833 132.5 19.7V10.3C132.5 10.2167 132.471 10.1457 132.413 10.087C132.354 10.029 132.283 10 132.2 10H120.8C120.717 10 120.646 10.029 120.588 10.087C120.529 10.1457 120.5 10.2167 120.5 10.3V19.7C120.5 19.7833 120.529 19.8543 120.588 19.913C120.646 19.971 120.717 20 120.8 20ZM126.5 16.75C126.983 16.75 127.396 16.5793 127.738 16.238C128.079 15.896 128.25 15.4833 128.25 15C128.25 14.5167 128.079 14.104 127.738 13.762C127.396 13.4207 126.983 13.25 126.5 13.25C126.017 13.25 125.604 13.4207 125.262 13.762C124.921 14.104 124.75 14.5167 124.75 15C124.75 15.4833 124.921 15.896 125.262 16.238C125.604 16.5793 126.017 16.75 126.5 16.75ZM123.5 8.5H129.5V6.5C129.5 5.66667 129.208 4.95833 128.625 4.375C128.042 3.79167 127.333 3.5 126.5 3.5C125.667 3.5 124.958 3.79167 124.375 4.375C123.792 4.95833 123.5 5.66667 123.5 6.5V8.5ZM120.5 20V10V20Z" fill="#121212"/>
</svg>
