<svg width="248" height="24" viewBox="0 0 248 24" fill="none" xmlns="http://www.w3.org/2000/svg">
<path d="M16.0007 7.00005C16.0007 6.44776 16.4484 6.00005 17.0007 6.00005C17.553 6.00005 18.0007 6.44776 18.0007 7.00005C18.0007 7.55233 17.553 8.00005 17.0007 8.00005C16.4484 8.00005 16.0007 7.55233 16.0007 7.00005Z" fill="#121212"/>
<path fill-rule="evenodd" clip-rule="evenodd" d="M12.0007 7.25005C9.37732 7.25005 7.25067 9.37669 7.25067 12C7.25067 14.6234 9.37732 16.75 12.0007 16.75C14.624 16.75 16.7507 14.6234 16.7507 12C16.7507 9.37669 14.624 7.25005 12.0007 7.25005ZM8.75067 12C8.75067 10.2051 10.2057 8.75005 12.0007 8.75005C13.7956 8.75005 15.2507 10.2051 15.2507 12C15.2507 13.795 13.7956 15.25 12.0007 15.25C10.2057 15.25 8.75067 13.795 8.75067 12Z" fill="#121212"/>
<path fill-rule="evenodd" clip-rule="evenodd" d="M17.2589 2.83306C13.7924 2.44562 10.209 2.44562 6.74244 2.83306C4.73038 3.05794 3.10605 4.64295 2.8695 6.66548C2.45496 10.2098 2.45496 13.7903 2.8695 17.3346C3.10605 19.3571 4.73038 20.9422 6.74244 21.167C10.209 21.5545 13.7924 21.5545 17.2589 21.167C19.271 20.9422 20.8953 19.3571 21.1319 17.3346C21.5464 13.7903 21.5464 10.2098 21.1319 6.66548C20.8953 4.64295 19.271 3.05794 17.2589 2.83306ZM6.90905 4.32378C10.2649 3.94871 13.7365 3.94871 17.0923 4.32378C18.4224 4.47244 19.4879 5.52205 19.642 6.83973C20.043 10.2683 20.043 13.7318 19.642 17.1604C19.4879 18.478 18.4224 19.5277 17.0923 19.6763C13.7365 20.0514 10.2649 20.0514 6.90905 19.6763C5.57894 19.5277 4.51346 18.478 4.35934 17.1604C3.95834 13.7318 3.95834 10.2683 4.35934 6.83973C4.51346 5.52205 5.57894 4.47244 6.90905 4.32378Z" fill="#121212"/>
<path fill-rule="evenodd" clip-rule="evenodd" d="M68 2.25C62.6152 2.25 58.25 6.61522 58.25 12C58.25 17.3848 62.6152 21.75 68 21.75C73.3848 21.75 77.75 17.3848 77.75 12C77.75 6.61522 73.3848 2.25 68 2.25ZM59.75 12C59.75 7.44365 63.4437 3.75 68 3.75C72.5563 3.75 76.25 7.44365 76.25 12C76.25 16.5563 72.5563 20.25 68 20.25C67.1427 20.25 66.316 20.1192 65.5386 19.8766C65.9612 19.213 66.2973 18.498 66.5387 17.7491L67.0553 15.7719C67.2687 16.0765 67.5548 16.3229 67.8877 16.4888C68.2205 16.6547 68.5895 16.7348 68.9612 16.7219C71.4965 16.7219 73.2778 14.4181 73.2778 11.5563C73.2778 8.80719 71.0334 6.75282 68.1537 6.75282C64.5675 6.75282 62.6615 9.16344 62.6615 11.7819C62.6615 13.005 63.3087 14.5191 64.3478 15.0059C64.5021 15.0772 64.6031 15.0059 64.6268 14.8931C64.6506 14.7804 64.7929 14.211 64.8583 13.9495C64.8685 13.9081 64.8686 13.8643 64.8582 13.8229C64.8479 13.7815 64.8276 13.7433 64.799 13.7116C64.4065 13.1585 64.1987 12.4957 64.2053 11.8175C64.2032 11.3307 64.3 10.8486 64.4896 10.4003C64.6793 9.95195 64.958 9.54679 65.3088 9.2093C65.6596 8.87181 66.0753 8.60902 66.5306 8.43682C66.9859 8.26463 67.4714 8.18662 67.9578 8.20751C68.4133 8.18086 68.8694 8.24946 69.2969 8.40892C69.7245 8.56838 70.1141 8.8152 70.4409 9.13365C70.7677 9.45209 71.0246 9.83516 71.1951 10.2584C71.3656 10.6817 71.446 11.1358 71.4312 11.5919C71.4312 13.8363 70.2912 15.3978 68.8187 15.3978C68.6285 15.4124 68.4375 15.381 68.262 15.3062C68.0865 15.2313 67.9317 15.1153 67.8105 14.9679C67.6893 14.8206 67.6055 14.6462 67.566 14.4595C67.5265 14.2729 67.5326 14.0794 67.5837 13.8956C67.6681 13.5454 67.7795 13.1847 67.888 12.8332C68.0849 12.1955 68.2725 11.5881 68.2725 11.1288C68.293 10.9796 68.2811 10.8277 68.2375 10.6835C68.1939 10.5394 68.1196 10.4064 68.0198 10.2936C67.92 10.1808 67.797 10.0909 67.6592 10.0301C67.5214 9.9693 67.3721 9.93899 67.2215 9.94126C66.3903 9.94126 65.7193 10.8081 65.7193 11.96C65.7131 12.3671 65.7899 12.7711 65.945 13.1475L64.9653 17.3038C64.8453 18.0891 64.845 18.8882 64.9645 19.6736C64.3139 19.4161 63.7039 19.0782 63.1467 18.6722C62.1696 17.9584 61.3532 17.0348 60.7629 15.9593C60.5307 15.5362 60.3371 15.0962 60.183 14.6446C59.9022 13.8144 59.75 12.925 59.75 12Z" fill="#121212"/>
<path fill-rule="evenodd" clip-rule="evenodd" d="M122.488 3.78769C123.472 2.80312 124.808 2.25 126.2 2.25H128.9C129.314 2.25 129.65 2.58579 129.65 3V6.6C129.65 7.01421 129.314 7.35 128.9 7.35H126.2C126.16 7.35 126.122 7.3658 126.094 7.39393C126.066 7.42206 126.05 7.46022 126.05 7.5V9.45H128.9C129.131 9.45 129.349 9.5564 129.491 9.73844C129.633 9.92048 129.684 10.1578 129.628 10.3819L128.728 13.9819C128.644 14.3158 128.344 14.55 128 14.55H126.05V21C126.05 21.4142 125.714 21.75 125.3 21.75H121.7C121.286 21.75 120.95 21.4142 120.95 21V14.55H119C118.586 14.55 118.25 14.2142 118.25 13.8V10.2C118.25 9.78579 118.586 9.45 119 9.45H120.95V7.5C120.95 6.10761 121.503 4.77226 122.488 3.78769ZM126.2 3.75C125.205 3.75 124.252 4.14509 123.548 4.84835C122.845 5.55161 122.45 6.50544 122.45 7.5V10.2C122.45 10.6142 122.114 10.95 121.7 10.95H119.75V13.05H121.7C122.114 13.05 122.45 13.3858 122.45 13.8V20.25H124.55V13.8C124.55 13.3858 124.886 13.05 125.3 13.05H127.414L127.939 10.95H125.3C124.886 10.95 124.55 10.6142 124.55 10.2V7.5C124.55 7.06239 124.724 6.64271 125.033 6.33327C125.343 6.02384 125.762 5.85 126.2 5.85H128.15V3.75H126.2Z" fill="#121212"/>
<path fill-rule="evenodd" clip-rule="evenodd" d="M183.022 3.3434C183.53 3.25632 184.099 3.22724 184.635 3.31789C185.592 3.47977 186.476 3.9245 187.174 4.59126C187.631 4.60158 188.08 4.51161 188.477 4.38335C188.813 4.2748 189.097 4.14373 189.296 4.04009C189.395 3.98856 189.471 3.9446 189.521 3.91484C189.546 3.89998 189.564 3.88874 189.575 3.88195L189.584 3.87589C189.881 3.67816 190.276 3.71664 190.529 3.96815C190.782 4.21971 190.823 4.61463 190.626 4.91254C190.419 5.22783 190.13 5.7899 189.807 6.41966C189.756 6.51868 189.705 6.61937 189.652 6.72104C189.467 7.08101 189.277 7.44482 189.1 7.75695C188.989 7.95294 188.87 8.15191 188.75 8.32385V8.59763C188.758 9.60326 188.642 10.6036 188.408 11.5769C188.261 12.1892 188.067 12.7908 187.826 13.3762C187.204 14.8928 186.286 16.2703 185.125 17.428C183.964 18.5858 182.584 19.5006 181.066 20.1192C179.549 20.7372 177.925 21.047 176.287 21.0305C173.912 21.0326 171.588 20.3485 169.593 19.0606C169.299 18.8709 169.176 18.5033 169.295 18.1746C169.414 17.8459 169.745 17.6433 170.092 17.6862C170.393 17.7234 170.695 17.7415 170.998 17.7405C172.085 17.7375 173.152 17.4972 174.126 17.0446C173.816 16.9037 173.521 16.7299 173.244 16.5251C172.433 15.9232 171.829 15.0833 171.517 14.1221C171.436 13.8724 171.491 13.5984 171.663 13.3998C171.666 13.3963 171.669 13.3927 171.672 13.3892C171.489 13.2256 171.317 13.0474 171.159 12.8558C170.448 11.9936 170.056 10.9121 170.05 9.7944L170.05 9.79053L170.05 9.74053C170.05 9.47466 170.191 9.22867 170.42 9.09395C170.478 9.05979 170.54 9.03409 170.603 9.01685C170.265 8.34177 170.089 7.59632 170.09 6.84006C170.09 5.98329 170.313 5.14133 170.739 4.39782C170.862 4.18319 171.083 4.04295 171.33 4.02298C171.576 4.003 171.817 4.10585 171.972 4.2979C172.935 5.48391 174.136 6.45417 175.498 7.14564C176.198 7.50109 176.933 7.77879 177.689 7.97522C178.112 8.08535 178.543 8.16994 178.978 8.22836C178.959 7.50511 179.101 6.78224 179.401 6.11431C179.841 5.13448 180.593 4.3283 181.54 3.82221C181.942 3.60788 182.474 3.43717 183.022 3.3434ZM171.743 10.8909C171.873 11.2558 172.066 11.5981 172.316 11.9012C172.807 12.4967 173.489 12.9043 174.246 13.0549C174.584 13.122 174.832 13.4099 174.849 13.7534C174.866 14.0969 174.647 14.4079 174.318 14.508C174.046 14.591 173.767 14.6487 173.484 14.6808C173.671 14.9213 173.89 15.1368 174.138 15.3202C174.699 15.7364 175.376 15.9672 176.075 15.9807C176.391 15.9868 176.67 16.1914 176.771 16.492C176.872 16.7925 176.773 17.1239 176.524 17.3199C175.475 18.1455 174.261 18.7211 172.976 19.015C174.041 19.3562 175.159 19.5319 176.289 19.5305L176.298 19.5305C177.738 19.5455 179.167 19.2734 180.5 18.73C181.834 18.1867 183.046 17.383 184.066 16.366C185.085 15.349 185.892 14.139 186.439 12.8067C186.65 12.2925 186.82 11.764 186.95 11.2261C187.156 10.3703 187.257 9.49065 187.25 8.60639L187.25 8.60052V8.07053C187.25 7.88867 187.316 7.71301 187.436 7.57624C187.505 7.4972 187.626 7.31464 187.795 7.01674C187.956 6.73362 188.134 6.39371 188.319 6.03453C188.33 6.0128 188.341 5.99097 188.352 5.96903C187.873 6.07318 187.329 6.12777 186.759 6.06618C186.579 6.04668 186.412 5.96239 186.289 5.82895C185.786 5.28362 185.116 4.92061 184.385 4.79687C184.06 4.74196 183.668 4.75453 183.275 4.82187C182.848 4.89503 182.476 5.02304 182.247 5.14522C181.593 5.49479 181.073 6.05163 180.77 6.72842C180.466 7.4052 180.395 8.16365 180.569 8.88481C180.625 9.11472 180.568 9.3573 180.417 9.53933C180.266 9.72136 180.038 9.82151 179.802 9.80957C178.959 9.76691 178.124 9.63826 177.311 9.42699C176.452 9.2035 175.616 8.88755 174.819 8.48314C173.646 7.88773 172.578 7.11063 171.654 6.18294C171.611 6.39855 171.59 6.61858 171.59 6.84003L171.59 6.84195C171.589 7.39267 171.724 7.9351 171.983 8.42095C172.243 8.9068 172.618 9.32099 173.076 9.62664C173.354 9.81214 173.476 10.1592 173.375 10.4777C173.274 10.7963 172.974 11.0093 172.64 11.0002C172.337 10.992 172.037 10.9552 171.743 10.8909Z" fill="#121212"/>
<path fill-rule="evenodd" clip-rule="evenodd" d="M229.787 14.0196C229.831 14.0344 229.875 14.0448 229.919 14.0512C229.967 14.1644 230.029 14.3107 230.102 14.4818C230.279 14.8994 230.517 15.4643 230.764 16.0535C231.266 17.2552 231.773 18.4939 231.884 18.8485C232.023 19.2868 232.169 19.5848 232.329 19.7883C232.412 19.8935 232.507 19.9853 232.619 20.0549C232.676 20.0899 232.735 20.1186 232.797 20.14C232.8 20.141 232.803 20.1419 232.805 20.1428C233.125 20.2636 233.417 20.2133 233.6 20.1518C233.698 20.1188 233.777 20.0791 233.833 20.0469C233.861 20.0304 233.885 20.0151 233.905 20.0021L233.909 19.9991L236.735 18.2366L240 20.7394C240.048 20.7763 240.101 20.8073 240.156 20.8316C240.548 21.0027 240.928 21.0624 241.286 21.0136C241.642 20.9649 241.925 20.8151 242.136 20.6464C242.343 20.4813 242.482 20.2963 242.57 20.1589C242.614 20.0887 242.647 20.0266 242.671 19.9791C242.683 19.9552 242.692 19.9346 242.7 19.9181L242.709 19.8963L242.713 19.8877L242.714 19.8841L242.715 19.8824L242.716 19.8808C242.733 19.8379 242.746 19.7935 242.755 19.7482L245.735 4.72274C245.745 4.67469 245.749 4.62581 245.749 4.57682C245.749 4.13681 245.584 3.71841 245.194 3.46452C244.861 3.24752 244.489 3.23818 244.255 3.25598C244.002 3.27519 243.768 3.33766 243.611 3.38757C243.53 3.41355 243.461 3.43861 243.412 3.45773C243.387 3.46734 243.367 3.47559 243.352 3.48188L243.34 3.48666L226.627 10.0432L226.624 10.044C226.614 10.0479 226.6 10.053 226.584 10.0593C226.551 10.0719 226.508 10.0896 226.457 10.1126C226.359 10.1574 226.22 10.2273 226.078 10.3247C225.851 10.4803 225.328 10.9064 225.416 11.6097C225.486 12.1708 225.871 12.5154 226.105 12.6811C226.233 12.7721 226.356 12.8371 226.445 12.8795C226.486 12.8991 226.572 12.9339 226.609 12.9491L226.618 12.9529L229.787 14.0196ZM243.925 4.86786L243.923 4.86888C243.915 4.8725 243.906 4.87596 243.898 4.87928L227.164 11.4438C227.155 11.4472 227.146 11.4505 227.137 11.4536L227.128 11.4571C227.117 11.4613 227.099 11.4686 227.077 11.4788C227.064 11.4846 227.05 11.491 227.037 11.4978C227.055 11.5084 227.073 11.5175 227.089 11.5251C227.105 11.5324 227.116 11.5374 227.123 11.54L230.265 12.598C230.323 12.6174 230.377 12.643 230.426 12.674L240.803 6.59948L240.812 6.59374C240.82 6.58927 240.83 6.58353 240.842 6.5768C240.865 6.56345 240.898 6.54568 240.936 6.52603C241.008 6.48938 241.124 6.43497 241.253 6.39485C241.344 6.36692 241.61 6.28823 241.898 6.38064C242.076 6.43767 242.26 6.56028 242.38 6.76798C242.439 6.87117 242.471 6.97483 242.486 7.06972C242.527 7.2192 242.521 7.36681 242.489 7.49424C242.42 7.76875 242.227 7.98287 242.052 8.14665C241.901 8.28706 239.956 10.1629 238.037 12.0147C237.08 12.9381 236.133 13.8525 235.424 14.5359L234.959 14.9849L240.831 19.4867C240.966 19.5349 241.046 19.5325 241.082 19.5274C241.126 19.5214 241.162 19.5045 241.199 19.4752C241.24 19.4424 241.276 19.398 241.303 19.3557L241.304 19.354L244.194 4.78102C244.151 4.79133 244.108 4.80361 244.066 4.81691C244.019 4.83198 243.98 4.84634 243.954 4.85637C243.941 4.86134 243.932 4.86511 243.927 4.86719L243.925 4.86786ZM235.464 17.2618L234.292 16.3636L234.009 18.1693L235.464 17.2618ZM233.218 14.5814L234.383 13.4567C235.091 12.7732 236.038 11.8588 236.995 10.9352L237.968 9.997L231.448 13.8138L231.483 13.8963C231.66 14.3154 231.9 14.8827 232.148 15.4751C232.333 15.918 232.526 16.3844 232.703 16.8162L232.986 15.0158C233.013 14.8422 233.098 14.692 233.218 14.5814Z" fill="#121212"/>
</svg>
