<svg width="768" height="619" viewBox="0 0 768 619" fill="none" xmlns="http://www.w3.org/2000/svg">
<mask id="path-1-inside-1_812_6098" fill="white">
<path d="M0 0H768V619H0V0Z"/>
</mask>
<path d="M768 618H0V620H768V618Z" fill="#121212" mask="url(#path-1-inside-1_812_6098)"/>
<path d="M307.75 156.4C304.25 159.9 299.967 161.65 294.9 161.65C289.833 161.65 285.533 159.9 282 156.4C278.5 152.867 276.75 148.567 276.75 143.5C276.75 138.433 278.5 134.15 282 130.65C285.533 127.117 289.833 125.35 294.9 125.35C299.967 125.35 304.25 127.117 307.75 130.65C311.283 134.15 313.05 138.433 313.05 143.5C313.05 148.567 311.283 152.867 307.75 156.4ZM286.05 152.5C288.483 154.867 291.433 156.05 294.9 156.05C298.4 156.05 301.333 154.867 303.7 152.5C306.1 150.1 307.3 147.1 307.3 143.5C307.3 139.9 306.1 136.917 303.7 134.55C301.333 132.15 298.4 130.95 294.9 130.95C291.4 130.95 288.45 132.15 286.05 134.55C283.683 136.917 282.5 139.9 282.5 143.5C282.5 147.067 283.683 150.067 286.05 152.5ZM335.088 149.4V136H340.488V161H335.088V157.8C333.421 160.367 330.838 161.65 327.338 161.65C324.438 161.65 322.105 160.733 320.338 158.9C318.605 157.033 317.738 154.517 317.738 151.35V136H323.138V150.8C323.138 152.667 323.638 154.1 324.638 155.1C325.638 156.1 327.005 156.6 328.738 156.6C330.705 156.6 332.255 156 333.388 154.8C334.521 153.567 335.088 151.767 335.088 149.4ZM352.202 136V140.2C353.569 137.1 356.136 135.55 359.902 135.55V141.4C357.869 141.267 356.069 141.767 354.502 142.9C352.969 144 352.202 145.833 352.202 148.4V161H346.802V136H352.202ZM388.392 161.65C385.026 161.65 382.159 160.9 379.792 159.4C377.459 157.867 375.826 155.75 374.892 153.05L379.842 150.15C381.242 154.083 384.142 156.05 388.542 156.05C390.676 156.05 392.292 155.633 393.392 154.8C394.492 153.967 395.042 152.85 395.042 151.45C395.042 150.05 394.459 148.967 393.292 148.2C392.126 147.433 390.059 146.6 387.092 145.7C384.059 144.8 381.609 143.733 379.742 142.5C377.476 140.9 376.342 138.55 376.342 135.45C376.342 132.35 377.442 129.9 379.642 128.1C381.809 126.267 384.459 125.35 387.592 125.35C390.359 125.35 392.792 126.033 394.892 127.4C397.026 128.733 398.659 130.617 399.792 133.05L394.942 135.85C393.476 132.583 391.026 130.95 387.592 130.95C385.926 130.95 384.592 131.35 383.592 132.15C382.592 132.917 382.092 133.967 382.092 135.3C382.092 136.6 382.592 137.633 383.592 138.4C384.592 139.133 386.442 139.917 389.142 140.75C390.809 141.317 391.776 141.65 392.042 141.75C392.476 141.883 393.342 142.217 394.642 142.75C395.709 143.183 396.559 143.65 397.192 144.15C399.792 146.183 400.992 148.583 400.792 151.35C400.792 154.517 399.642 157.033 397.342 158.9C395.109 160.733 392.126 161.65 388.392 161.65ZM418.614 136V141.2H412.414V153.2C412.414 154.233 412.647 154.983 413.114 155.45C413.58 155.883 414.264 156.133 415.164 156.2C416.097 156.233 417.247 156.217 418.614 156.15V161C414.48 161.5 411.514 161.15 409.714 159.95C407.914 158.717 407.014 156.467 407.014 153.2V141.2H402.414V136H407.014V130.6L412.414 129V136H418.614ZM443.636 157.85C441.103 160.383 437.986 161.65 434.286 161.65C430.586 161.65 427.469 160.383 424.936 157.85C422.369 155.283 421.086 152.167 421.086 148.5C421.086 144.833 422.369 141.717 424.936 139.15C427.469 136.617 430.586 135.35 434.286 135.35C437.986 135.35 441.103 136.617 443.636 139.15C446.203 141.717 447.486 144.833 447.486 148.5C447.486 152.167 446.203 155.283 443.636 157.85ZM426.486 148.5C426.486 150.767 427.236 152.65 428.736 154.15C430.236 155.65 432.086 156.4 434.286 156.4C436.486 156.4 438.336 155.65 439.836 154.15C441.336 152.65 442.086 150.767 442.086 148.5C442.086 146.233 441.336 144.35 439.836 142.85C438.336 141.35 436.486 140.6 434.286 140.6C432.086 140.6 430.236 141.35 428.736 142.85C427.236 144.35 426.486 146.233 426.486 148.5ZM457.769 136V140.2C459.135 137.1 461.702 135.55 465.469 135.55V141.4C463.435 141.267 461.635 141.767 460.069 142.9C458.535 144 457.769 145.833 457.769 148.4V161H452.369V136H457.769ZM480.397 154.15L486.797 136H492.547L482.947 161.8C480.547 168.267 476.48 171.333 470.747 171V165.95C472.414 166.05 473.764 165.7 474.797 164.9C475.83 164.1 476.697 162.817 477.397 161.05L477.647 160.55L467.047 136H472.947L480.397 154.15Z" fill="#121212"/>
<path d="M350.22 217.02C350.267 217.3 350.57 217.51 351.13 217.65C351.69 217.79 352.343 217.883 353.09 217.93C353.883 217.977 354.7 218 355.54 218C356.38 218 357.08 218 357.64 218C359.133 218 360.347 218.023 361.28 218.07C362.213 218.07 362.867 218.117 363.24 218.21C363.707 218.35 363.963 218.42 364.01 218.42C364.103 218.373 364.197 218.187 364.29 217.86C364.477 216.927 364.71 215.667 364.99 214.08C365.27 212.493 365.55 210.907 365.83 209.32C366.11 207.733 366.343 206.357 366.53 205.19C366.763 203.977 366.903 203.277 366.95 203.09C367.043 202.717 367.043 202.53 366.95 202.53C366.857 202.483 366.623 202.6 366.25 202.88C366.11 202.973 365.713 203.3 365.06 203.86C364.407 204.373 363.567 205.05 362.54 205.89C361.56 206.73 360.463 207.663 359.25 208.69C358.083 209.67 356.917 210.673 355.75 211.7C354.63 212.68 353.58 213.637 352.6 214.57C351.62 215.503 350.827 216.32 350.22 217.02ZM332.16 234.1C332.207 233.26 332.51 232.513 333.07 231.86C333.677 231.16 334.47 230.343 335.45 229.41C344.41 221.057 351.643 214.477 357.15 209.67C362.657 204.817 366.18 201.853 367.72 200.78C368.093 200.547 368.653 200.337 369.4 200.15C370.147 199.963 370.66 199.73 370.94 199.45C371.22 199.17 371.36 199.147 371.36 199.38C371.407 199.567 371.383 199.753 371.29 199.94C370.823 200.64 370.45 201.457 370.17 202.39C369.89 203.277 369.703 204.023 369.61 204.63C369.563 204.817 369.423 205.447 369.19 206.52C369.003 207.547 368.77 208.83 368.49 210.37C368.21 211.863 367.907 213.497 367.58 215.27C367.3 216.997 367.02 218.677 366.74 220.31C366.46 221.897 366.227 223.343 366.04 224.65C365.9 225.91 365.807 226.797 365.76 227.31C365.76 228.103 365.83 228.733 365.97 229.2C366.157 229.62 366.367 229.947 366.6 230.18C366.833 230.367 367.067 230.483 367.3 230.53C367.533 230.577 367.72 230.6 367.86 230.6C368.093 230.6 368.373 230.577 368.7 230.53C369.027 230.437 369.377 230.343 369.75 230.25C370.123 230.157 370.31 230.18 370.31 230.32C370.357 230.46 370.193 230.577 369.82 230.67C369.633 230.717 369.283 230.81 368.77 230.95C368.303 231.09 367.743 231.253 367.09 231.44C366.483 231.627 365.853 231.813 365.2 232C364.593 232.14 364.057 232.257 363.59 232.35C362.89 232.35 362.423 231.883 362.19 230.95C362.237 230.67 362.33 230.087 362.47 229.2C362.61 228.267 362.75 227.287 362.89 226.26C363.077 225.233 363.24 224.277 363.38 223.39C363.52 222.457 363.59 221.85 363.59 221.57C363.59 221.057 363.333 220.543 362.82 220.03C362.353 219.47 361.653 219.073 360.72 218.84C360.393 218.747 359.763 218.677 358.83 218.63C357.897 218.583 356.777 218.56 355.47 218.56C354.117 218.56 352.787 218.56 351.48 218.56C350.173 218.513 349.193 218.443 348.54 218.35C344.993 221.57 342.007 224.51 339.58 227.17C337.2 229.83 335.403 232.047 334.19 233.82C333.817 234.427 333.537 234.963 333.35 235.43C333.21 235.943 333.093 236.597 333 237.39C332.907 237.67 332.767 237.74 332.58 237.6L332.16 234.1ZM409.71 186.99C409.71 187.69 409.687 188.157 409.64 188.39C409.593 188.623 409.5 188.67 409.36 188.53C409.127 188.297 408.8 188.04 408.38 187.76C408.007 187.433 407.33 187.27 406.35 187.27C405.51 187.27 404.74 187.317 404.04 187.41C403.34 187.503 402.617 187.69 401.87 187.97C401.17 188.25 400.423 188.647 399.63 189.16C398.837 189.627 397.95 190.28 396.97 191.12C395.57 192.287 394.053 194.013 392.42 196.3C390.787 198.54 389.13 201.013 387.45 203.72C385.817 206.38 384.253 209.11 382.76 211.91C381.267 214.663 379.96 217.137 378.84 219.33C378.467 220.077 378.047 220.963 377.58 221.99C377.16 222.97 376.763 223.973 376.39 225C376.063 225.98 375.783 226.913 375.55 227.8C375.317 228.64 375.2 229.27 375.2 229.69C375.2 230.95 375.62 231.58 376.46 231.58C376.973 231.58 377.557 231.347 378.21 230.88C378.863 230.367 379.493 229.667 380.1 228.78C380.707 227.847 381.22 226.727 381.64 225.42C382.06 224.067 382.27 222.55 382.27 220.87C382.27 220.31 382.223 219.867 382.13 219.54C382.083 219.167 382.013 218.863 381.92 218.63C381.92 218.35 382.06 218.07 382.34 217.79C382.527 217.603 382.76 217.393 383.04 217.16C383.32 216.88 383.577 216.67 383.81 216.53C383.95 216.53 384.043 216.577 384.09 216.67C384.09 217.603 384.253 218.397 384.58 219.05C384.953 219.657 385.397 220.17 385.91 220.59C386.47 220.963 387.053 221.243 387.66 221.43C388.313 221.617 388.92 221.71 389.48 221.71C390.273 221.71 391.137 221.593 392.07 221.36C393.003 221.08 393.96 220.637 394.94 220.03C395.173 219.89 395.313 219.913 395.36 220.1C395.453 220.24 395.383 220.357 395.15 220.45C393.657 221.243 392.28 221.827 391.02 222.2C389.807 222.573 388.663 222.76 387.59 222.76C386.703 222.76 385.887 222.573 385.14 222.2C384.44 221.78 383.903 221.313 383.53 220.8C383.53 222.573 383.227 224.183 382.62 225.63C382.06 227.077 381.36 228.313 380.52 229.34C379.68 230.32 378.77 231.09 377.79 231.65C376.81 232.21 375.923 232.49 375.13 232.49C374.383 232.49 373.753 232.257 373.24 231.79C372.773 231.323 372.54 230.6 372.54 229.62C372.54 228.873 372.703 227.963 373.03 226.89C373.357 225.817 373.753 224.743 374.22 223.67C374.733 222.55 375.247 221.5 375.76 220.52C376.273 219.493 376.693 218.677 377.02 218.07C378.28 215.737 379.633 213.357 381.08 210.93C382.527 208.503 384.043 206.1 385.63 203.72C387.263 201.34 388.967 199.053 390.74 196.86C392.56 194.62 394.473 192.567 396.48 190.7C397.04 190.187 397.74 189.58 398.58 188.88C399.467 188.18 400.4 187.527 401.38 186.92C402.36 186.267 403.34 185.73 404.32 185.31C405.347 184.89 406.28 184.68 407.12 184.68C407.96 184.68 408.59 184.913 409.01 185.38C409.477 185.8 409.71 186.337 409.71 186.99ZM425.606 227.66C423.832 229.527 421.989 231.02 420.076 232.14C418.162 233.307 416.062 233.89 413.776 233.89C412.842 233.89 412.189 233.633 411.816 233.12C411.489 232.653 411.326 232.023 411.326 231.23C411.326 230.437 411.512 229.48 411.886 228.36C412.259 227.193 412.772 225.933 413.426 224.58C412.866 225.373 412.259 226.143 411.606 226.89C410.999 227.637 410.369 228.313 409.716 228.92C409.109 229.48 408.502 229.947 407.896 230.32C407.289 230.647 406.706 230.81 406.146 230.81C405.119 230.81 404.606 230.297 404.606 229.27C404.606 228.897 404.792 228.267 405.166 227.38C405.586 226.493 406.356 225.187 407.476 223.46C407.989 222.667 408.502 221.85 409.016 221.01C409.529 220.123 409.786 219.353 409.786 218.7C409.786 218.28 409.622 217.93 409.296 217.65C409.016 217.323 408.479 217.16 407.686 217.16C406.659 217.16 405.469 217.37 404.116 217.79C402.809 218.21 401.666 218.607 400.686 218.98C400.732 219.727 400.499 220.847 399.986 222.34C399.472 223.833 398.772 225.327 397.886 226.82C396.999 228.313 395.972 229.62 394.806 230.74C393.686 231.86 392.496 232.42 391.236 232.42C390.629 232.42 390.139 232.233 389.766 231.86C389.392 231.487 389.206 230.973 389.206 230.32C389.206 229.06 389.486 227.777 390.046 226.47C390.606 225.163 391.306 223.95 392.146 222.83C392.986 221.71 393.896 220.73 394.876 219.89C395.856 219.003 396.766 218.35 397.606 217.93C397.512 217.743 397.466 217.487 397.466 217.16C397.466 217.067 397.489 216.95 397.536 216.81C397.582 216.67 397.676 216.6 397.816 216.6C398.049 216.833 398.282 216.973 398.516 217.02C398.749 217.02 399.052 217.02 399.426 217.02C400.219 217.02 401.269 216.973 402.576 216.88C403.882 216.74 405.142 216.67 406.356 216.67C408.129 216.67 409.342 216.95 409.996 217.51C410.649 218.023 410.976 218.84 410.976 219.96C410.976 220.52 410.789 221.243 410.416 222.13C410.089 222.97 409.622 223.903 409.016 224.93C408.362 226.003 407.872 226.89 407.546 227.59C407.219 228.243 407.056 228.757 407.056 229.13C407.056 229.503 407.219 229.69 407.546 229.69C407.872 229.69 408.339 229.433 408.946 228.92C409.599 228.407 410.252 227.8 410.906 227.1C411.606 226.4 412.259 225.677 412.866 224.93C413.472 224.137 413.916 223.46 414.196 222.9C414.662 222.107 415.152 221.267 415.666 220.38C416.179 219.493 416.739 218.607 417.346 217.72C417.579 217.487 417.906 217.3 418.326 217.16C418.792 217.02 419.306 216.903 419.866 216.81C420.286 216.81 420.496 216.903 420.496 217.09C420.262 217.183 420.029 217.323 419.796 217.51C419.609 217.65 419.376 217.93 419.096 218.35C418.302 219.563 417.579 220.8 416.926 222.06C416.272 223.32 415.689 224.51 415.176 225.63C414.709 226.75 414.336 227.753 414.056 228.64C413.822 229.527 413.706 230.203 413.706 230.67C413.706 231.323 413.846 231.883 414.126 232.35C414.406 232.817 414.896 233.05 415.596 233.05C416.809 233.05 418.232 232.653 419.866 231.86C421.499 231.02 423.319 229.503 425.326 227.31C425.512 227.217 425.606 227.333 425.606 227.66ZM399.146 220.24C399.146 220.1 399.146 219.937 399.146 219.75C399.146 219.563 399.122 219.4 399.076 219.26C398.889 219.167 398.679 219.027 398.446 218.84C398.212 218.653 398.026 218.49 397.886 218.35C397.232 218.537 396.532 219.073 395.786 219.96C395.039 220.847 394.339 221.873 393.686 223.04C393.032 224.207 392.496 225.42 392.076 226.68C391.656 227.893 391.446 228.967 391.446 229.9C391.446 230.367 391.539 230.717 391.726 230.95C391.959 231.183 392.216 231.3 392.496 231.3C393.009 231.3 393.639 230.973 394.386 230.32C395.179 229.667 395.926 228.827 396.626 227.8C397.326 226.727 397.909 225.537 398.376 224.23C398.889 222.923 399.146 221.593 399.146 220.24ZM440.595 206.45C440.222 206.543 439.802 206.73 439.335 207.01C438.869 207.243 438.519 207.547 438.285 207.92C437.212 209.413 436.162 210.977 435.135 212.61C434.155 214.243 433.199 215.877 432.265 217.51H440.945C441.085 217.603 441.155 217.697 441.155 217.79C441.155 217.883 441.109 217.953 441.015 218C440.642 218 440.082 218.023 439.335 218.07C438.589 218.07 437.772 218.093 436.885 218.14C435.999 218.187 435.089 218.233 434.155 218.28C433.222 218.327 432.405 218.373 431.705 218.42C430.399 220.753 429.395 222.737 428.695 224.37C427.995 226.003 427.645 227.427 427.645 228.64C427.645 230.32 428.415 231.16 429.955 231.16C430.702 231.16 431.542 230.973 432.475 230.6C433.455 230.18 434.482 229.643 435.555 228.99C435.695 228.85 435.835 228.873 435.975 229.06C436.115 229.2 436.069 229.317 435.835 229.41C434.249 230.437 432.779 231.183 431.425 231.65C430.072 232.117 428.695 232.35 427.295 232.35C426.549 232.35 425.895 232.14 425.335 231.72C424.775 231.253 424.495 230.483 424.495 229.41C424.495 228.477 424.915 227.1 425.755 225.28C426.595 223.46 427.832 221.22 429.465 218.56C428.905 218.607 428.205 218.677 427.365 218.77C426.572 218.817 426.105 218.84 425.965 218.84C425.732 218.84 425.615 218.747 425.615 218.56C425.802 218.233 426.105 217.907 426.525 217.58L430.095 217.51C430.515 216.81 430.982 216.04 431.495 215.2C432.009 214.313 432.522 213.45 433.035 212.61C433.549 211.723 434.062 210.883 434.575 210.09C435.135 209.25 435.625 208.48 436.045 207.78C436.559 207.547 437.259 207.243 438.145 206.87C439.079 206.497 439.895 206.193 440.595 205.96C440.689 205.96 440.759 206.03 440.805 206.17C440.852 206.263 440.782 206.357 440.595 206.45Z" fill="#121212"/>
<path d="M184.75 282.05L199.4 300H192.55L178.75 283.35V300H173V265H178.75V280.7L192.05 265H198.9L184.75 282.05ZM210.737 293.15L217.137 275H222.887L213.287 300.8C210.887 307.267 206.82 310.333 201.087 310V304.95C202.753 305.05 204.103 304.7 205.137 303.9C206.17 303.1 207.037 301.817 207.737 300.05L207.987 299.55L197.387 275H203.287L210.737 293.15ZM231.363 270.25C230.697 270.917 229.897 271.25 228.963 271.25C228.03 271.25 227.213 270.917 226.513 270.25C225.847 269.55 225.513 268.733 225.513 267.8C225.513 266.867 225.847 266.067 226.513 265.4C227.18 264.7 227.997 264.35 228.963 264.35C229.93 264.35 230.747 264.7 231.413 265.4C232.08 266.067 232.413 266.867 232.413 267.8C232.413 268.733 232.063 269.55 231.363 270.25ZM231.663 300H226.263V275H231.663V300ZM247.933 294L254.883 275H260.783L251.033 300H244.783L235.033 275H240.933L247.933 294ZM282.803 265V294.5H297.053V300H277.053V265H282.803ZM317.527 288.4V275H322.927V300H317.527V296.8C315.861 299.367 313.277 300.65 309.777 300.65C306.877 300.65 304.544 299.733 302.777 297.9C301.044 296.033 300.177 293.517 300.177 290.35V275H305.577V289.8C305.577 291.667 306.077 293.1 307.077 294.1C308.077 295.1 309.444 295.6 311.177 295.6C313.144 295.6 314.694 295 315.827 293.8C316.961 292.567 317.527 290.767 317.527 288.4ZM342.242 287.2L351.592 300H345.342L339.142 291.45L332.892 300H326.592L335.992 287.15L327.092 275H333.342L339.092 282.9L344.842 275H351.142L342.242 287.2ZM377.562 289.8H357.662C358.062 291.667 358.962 293.117 360.362 294.15C361.795 295.183 363.562 295.7 365.662 295.7C368.495 295.7 370.645 294.667 372.112 292.6L376.562 295.2C374.128 298.833 370.478 300.65 365.612 300.65C361.578 300.65 358.295 299.417 355.762 296.95C353.262 294.45 352.012 291.3 352.012 287.5C352.012 283.8 353.245 280.683 355.712 278.15C358.145 275.617 361.312 274.35 365.212 274.35C368.845 274.35 371.845 275.633 374.212 278.2C376.578 280.767 377.762 283.883 377.762 287.55C377.762 288.217 377.695 288.967 377.562 289.8ZM357.612 285.4H372.312C371.945 283.433 371.112 281.917 369.812 280.85C368.545 279.783 366.995 279.25 365.162 279.25C363.162 279.25 361.495 279.8 360.162 280.9C358.828 282 357.978 283.5 357.612 285.4ZM403.463 281.85C404.997 282.65 406.197 283.767 407.063 285.2C407.93 286.6 408.363 288.2 408.363 290C408.363 292.867 407.347 295.25 405.313 297.15C403.28 299.05 400.797 300 397.863 300H382.863V265H396.763C399.63 265 402.047 265.933 404.013 267.8C406.013 269.667 407.013 271.967 407.013 274.7C407.013 277.7 405.83 280.083 403.463 281.85ZM396.763 270.4H388.613V279.6H396.763C398.03 279.6 399.097 279.167 399.963 278.3C400.83 277.4 401.263 276.3 401.263 275C401.263 273.7 400.83 272.617 399.963 271.75C399.097 270.85 398.03 270.4 396.763 270.4ZM388.613 294.6H397.863C399.197 294.6 400.313 294.133 401.213 293.2C402.147 292.233 402.613 291.067 402.613 289.7C402.613 288.333 402.147 287.183 401.213 286.25C400.313 285.283 399.197 284.8 397.863 284.8H388.613V294.6ZM434.425 296.85C431.892 299.383 428.775 300.65 425.075 300.65C421.375 300.65 418.258 299.383 415.725 296.85C413.158 294.283 411.875 291.167 411.875 287.5C411.875 283.833 413.158 280.717 415.725 278.15C418.258 275.617 421.375 274.35 425.075 274.35C428.775 274.35 431.892 275.617 434.425 278.15C436.992 280.717 438.275 283.833 438.275 287.5C438.275 291.167 436.992 294.283 434.425 296.85ZM417.275 287.5C417.275 289.767 418.025 291.65 419.525 293.15C421.025 294.65 422.875 295.4 425.075 295.4C427.275 295.4 429.125 294.65 430.625 293.15C432.125 291.65 432.875 289.767 432.875 287.5C432.875 285.233 432.125 283.35 430.625 281.85C429.125 280.35 427.275 279.6 425.075 279.6C422.875 279.6 421.025 280.35 419.525 281.85C418.025 283.35 417.275 285.233 417.275 287.5ZM460.008 288.4V275H465.408V300H460.008V296.8C458.341 299.367 455.758 300.65 452.258 300.65C449.358 300.65 447.024 299.733 445.258 297.9C443.524 296.033 442.658 293.517 442.658 290.35V275H448.058V289.8C448.058 291.667 448.558 293.1 449.558 294.1C450.558 295.1 451.924 295.6 453.658 295.6C455.624 295.6 457.174 295 458.308 293.8C459.441 292.567 460.008 290.767 460.008 288.4ZM491.522 278.6V275H496.922V310H491.522V296.45C489.489 299.25 486.572 300.65 482.772 300.65C479.339 300.65 476.406 299.383 473.972 296.85C471.539 294.317 470.322 291.2 470.322 287.5C470.322 283.833 471.539 280.733 473.972 278.2C476.439 275.633 479.372 274.35 482.772 274.35C486.572 274.35 489.489 275.767 491.522 278.6ZM477.972 293.25C479.472 294.75 481.356 295.5 483.622 295.5C485.889 295.5 487.772 294.75 489.272 293.25C490.772 291.717 491.522 289.8 491.522 287.5C491.522 285.2 490.772 283.3 489.272 281.8C487.772 280.267 485.889 279.5 483.622 279.5C481.356 279.5 479.472 280.267 477.972 281.8C476.472 283.3 475.722 285.2 475.722 287.5C475.722 289.767 476.472 291.683 477.972 293.25ZM520.066 288.4V275H525.466V300H520.066V296.8C518.4 299.367 515.816 300.65 512.316 300.65C509.416 300.65 507.083 299.733 505.316 297.9C503.583 296.033 502.716 293.517 502.716 290.35V275H508.116V289.8C508.116 291.667 508.616 293.1 509.616 294.1C510.616 295.1 511.983 295.6 513.716 295.6C515.683 295.6 517.233 295 518.366 293.8C519.5 292.567 520.066 290.767 520.066 288.4ZM555.931 289.8H536.031C536.431 291.667 537.331 293.117 538.731 294.15C540.164 295.183 541.931 295.7 544.031 295.7C546.864 295.7 549.014 294.667 550.481 292.6L554.931 295.2C552.498 298.833 548.848 300.65 543.981 300.65C539.948 300.65 536.664 299.417 534.131 296.95C531.631 294.45 530.381 291.3 530.381 287.5C530.381 283.8 531.614 280.683 534.081 278.15C536.514 275.617 539.681 274.35 543.581 274.35C547.214 274.35 550.214 275.633 552.581 278.2C554.948 280.767 556.131 283.883 556.131 287.55C556.131 288.217 556.064 288.967 555.931 289.8ZM535.981 285.4H550.681C550.314 283.433 549.481 281.917 548.181 280.85C546.914 279.783 545.364 279.25 543.531 279.25C541.531 279.25 539.864 279.8 538.531 280.9C537.198 282 536.348 283.5 535.981 285.4ZM574.051 275V280.2H567.851V292.2C567.851 293.233 568.085 293.983 568.551 294.45C569.018 294.883 569.701 295.133 570.601 295.2C571.535 295.233 572.685 295.217 574.051 295.15V300C569.918 300.5 566.951 300.15 565.151 298.95C563.351 297.717 562.451 295.467 562.451 292.2V280.2H557.851V275H562.451V269.6L567.851 268V275H574.051ZM582.871 281.9C582.871 282.667 583.271 283.3 584.071 283.8C584.871 284.267 586.038 284.717 587.571 285.15C588.738 285.417 589.754 285.7 590.621 286C591.488 286.3 592.404 286.75 593.371 287.35C594.338 287.917 595.071 288.683 595.571 289.65C596.104 290.583 596.354 291.683 596.321 292.95C596.321 295.35 595.388 297.233 593.521 298.6C591.654 299.967 589.338 300.65 586.571 300.65C584.104 300.65 581.988 300.133 580.221 299.1C578.454 298.067 577.171 296.633 576.371 294.8L581.021 292.1C581.854 294.5 583.704 295.7 586.571 295.7C589.404 295.7 590.821 294.767 590.821 292.9C590.821 291.533 589.238 290.467 586.071 289.7C584.871 289.4 583.854 289.1 583.021 288.8C582.221 288.5 581.321 288.067 580.321 287.5C579.354 286.933 578.604 286.183 578.071 285.25C577.571 284.317 577.338 283.233 577.371 282C577.371 279.7 578.238 277.85 579.971 276.45C581.738 275.05 583.921 274.35 586.521 274.35C588.588 274.35 590.421 274.817 592.021 275.75C593.654 276.65 594.904 277.917 595.771 279.55L591.221 282.1C590.388 280.2 588.821 279.25 586.521 279.25C585.454 279.25 584.571 279.483 583.871 279.95C583.204 280.417 582.871 281.067 582.871 281.9Z" fill="#121212"/>
<path d="M166.461 344.4H171.321C173.037 344.4 174.453 345.012 175.569 346.236C176.697 347.436 177.261 348.924 177.261 350.7C177.261 352.476 176.697 353.97 175.569 355.182C174.453 356.394 173.037 357 171.321 357H166.461V344.4ZM167.721 355.812H171.321C172.701 355.812 173.829 355.32 174.705 354.336C175.593 353.34 176.037 352.128 176.037 350.7C176.037 349.272 175.593 348.06 174.705 347.064C173.829 346.08 172.701 345.588 171.321 345.588H167.721V355.812ZM180.694 345.228C180.694 345.468 180.61 345.672 180.442 345.84C180.274 346.008 180.07 346.092 179.83 346.092C179.59 346.092 179.386 346.008 179.218 345.84C179.05 345.672 178.966 345.468 178.966 345.228C178.966 344.988 179.05 344.784 179.218 344.616C179.386 344.448 179.59 344.364 179.83 344.364C180.07 344.364 180.274 344.448 180.442 344.616C180.61 344.784 180.694 344.988 180.694 345.228ZM180.424 357H179.236V348H180.424V357ZM183.881 350.358C183.881 351.054 184.499 351.564 185.735 351.888C186.083 351.972 186.311 352.032 186.419 352.068C186.527 352.092 186.737 352.158 187.049 352.266C187.373 352.362 187.595 352.446 187.715 352.518C187.847 352.59 188.027 352.704 188.255 352.86C188.483 353.004 188.645 353.154 188.741 353.31C188.837 353.454 188.927 353.646 189.011 353.886C189.095 354.114 189.137 354.36 189.137 354.624C189.137 355.392 188.831 356.016 188.219 356.496C187.631 356.976 186.851 357.216 185.879 357.216C185.039 357.216 184.313 357.03 183.701 356.658C183.089 356.274 182.657 355.77 182.405 355.146L183.413 354.552C183.581 355.02 183.881 355.392 184.313 355.668C184.757 355.932 185.279 356.064 185.879 356.064C186.491 356.064 186.989 355.944 187.373 355.704C187.757 355.464 187.949 355.104 187.949 354.624C187.949 353.928 187.331 353.418 186.095 353.094C185.747 353.01 185.519 352.956 185.411 352.932C185.303 352.896 185.087 352.83 184.763 352.734C184.451 352.626 184.229 352.536 184.097 352.464C183.977 352.392 183.803 352.284 183.575 352.14C183.347 351.984 183.185 351.834 183.089 351.69C182.993 351.534 182.903 351.342 182.819 351.114C182.735 350.874 182.693 350.622 182.693 350.358C182.693 349.626 182.981 349.014 183.557 348.522C184.157 348.03 184.895 347.784 185.771 347.784C186.491 347.784 187.127 347.946 187.679 348.27C188.243 348.594 188.657 349.044 188.921 349.62L187.931 350.196C187.595 349.356 186.875 348.936 185.771 348.936C185.231 348.936 184.781 349.062 184.421 349.314C184.061 349.566 183.881 349.914 183.881 350.358ZM195.049 357.216C193.693 357.216 192.565 356.766 191.665 355.866C190.765 354.942 190.315 353.82 190.315 352.5C190.315 351.168 190.765 350.052 191.665 349.152C192.565 348.24 193.693 347.784 195.049 347.784C195.937 347.784 196.735 348 197.443 348.432C198.151 348.852 198.667 349.422 198.991 350.142L198.019 350.7C197.779 350.16 197.389 349.734 196.849 349.422C196.321 349.098 195.721 348.936 195.049 348.936C194.053 348.936 193.213 349.284 192.529 349.98C191.845 350.664 191.503 351.504 191.503 352.5C191.503 353.484 191.845 354.33 192.529 355.038C193.213 355.722 194.053 356.064 195.049 356.064C195.709 356.064 196.303 355.908 196.831 355.596C197.371 355.284 197.791 354.852 198.091 354.3L199.081 354.876C198.709 355.596 198.163 356.166 197.443 356.586C196.723 357.006 195.925 357.216 195.049 357.216ZM208.24 355.866C207.316 356.766 206.2 357.216 204.892 357.216C203.56 357.216 202.438 356.766 201.526 355.866C200.614 354.954 200.158 353.832 200.158 352.5C200.158 351.168 200.614 350.052 201.526 349.152C202.438 348.24 203.56 347.784 204.892 347.784C206.212 347.784 207.328 348.24 208.24 349.152C209.164 350.052 209.626 351.168 209.626 352.5C209.626 353.82 209.164 354.942 208.24 355.866ZM202.372 355.038C203.056 355.722 203.896 356.064 204.892 356.064C205.888 356.064 206.728 355.722 207.412 355.038C208.096 354.33 208.438 353.484 208.438 352.5C208.438 351.504 208.096 350.664 207.412 349.98C206.728 349.284 205.888 348.936 204.892 348.936C203.896 348.936 203.056 349.284 202.372 349.98C201.688 350.664 201.346 351.504 201.346 352.5C201.346 353.484 201.688 354.33 202.372 355.038ZM214.593 355.758L217.743 348H219.003L215.313 357H213.873L210.183 348H211.443L214.593 355.758ZM224.245 347.784C225.589 347.784 226.663 348.258 227.467 349.206C228.295 350.142 228.709 351.252 228.709 352.536C228.709 352.596 228.697 352.782 228.673 353.094H220.771C220.891 353.994 221.275 354.714 221.923 355.254C222.571 355.794 223.381 356.064 224.353 356.064C225.721 356.064 226.687 355.554 227.251 354.534L228.295 355.146C227.899 355.794 227.353 356.304 226.657 356.676C225.973 357.036 225.199 357.216 224.335 357.216C222.919 357.216 221.767 356.772 220.879 355.884C219.991 354.996 219.547 353.868 219.547 352.5C219.547 351.144 219.985 350.022 220.861 349.134C221.737 348.234 222.865 347.784 224.245 347.784ZM224.245 348.936C223.309 348.936 222.523 349.212 221.887 349.764C221.263 350.316 220.891 351.042 220.771 351.942H227.485C227.353 350.982 226.987 350.244 226.387 349.728C225.763 349.2 225.049 348.936 224.245 348.936ZM231.787 348V349.494C232.339 348.402 233.287 347.856 234.631 347.856V349.008C233.767 349.008 233.077 349.26 232.561 349.764C232.045 350.256 231.787 351 231.787 351.996V357H230.599V348H231.787ZM240.759 352.716V344.4H242.019V352.716C242.019 353.736 242.319 354.54 242.919 355.128C243.531 355.704 244.371 355.992 245.439 355.992C246.507 355.992 247.341 355.704 247.941 355.128C248.553 354.54 248.859 353.736 248.859 352.716V344.4H250.119V352.716C250.119 354.084 249.687 355.176 248.823 355.992C247.947 356.808 246.819 357.216 245.439 357.216C244.059 357.216 242.931 356.808 242.055 355.992C241.191 355.176 240.759 354.084 240.759 352.716ZM256.854 347.784C257.934 347.784 258.792 348.12 259.428 348.792C260.064 349.452 260.382 350.346 260.382 351.474V357H259.194V351.474C259.194 350.67 258.978 350.046 258.546 349.602C258.126 349.158 257.526 348.936 256.746 348.936C255.846 348.936 255.132 349.218 254.604 349.782C254.088 350.346 253.83 351.18 253.83 352.284V357H252.642V348H253.83V349.404C254.502 348.324 255.51 347.784 256.854 347.784ZM264.137 345.228C264.137 345.468 264.053 345.672 263.885 345.84C263.717 346.008 263.513 346.092 263.273 346.092C263.033 346.092 262.829 346.008 262.661 345.84C262.493 345.672 262.409 345.468 262.409 345.228C262.409 344.988 262.493 344.784 262.661 344.616C262.829 344.448 263.033 344.364 263.273 344.364C263.513 344.364 263.717 344.448 263.885 344.616C264.053 344.784 264.137 344.988 264.137 345.228ZM263.867 357H262.679V348H263.867V357ZM274.128 349.764V348H275.316V360.6H274.128V355.236C273.3 356.556 272.088 357.216 270.492 357.216C269.208 357.216 268.11 356.76 267.198 355.848C266.298 354.936 265.848 353.82 265.848 352.5C265.848 351.18 266.298 350.064 267.198 349.152C268.11 348.24 269.208 347.784 270.492 347.784C272.088 347.784 273.3 348.444 274.128 349.764ZM268.062 355.038C268.746 355.722 269.586 356.064 270.582 356.064C271.578 356.064 272.418 355.722 273.102 355.038C273.786 354.33 274.128 353.484 274.128 352.5C274.128 351.504 273.786 350.664 273.102 349.98C272.418 349.284 271.578 348.936 270.582 348.936C269.586 348.936 268.746 349.284 268.062 349.98C267.378 350.664 267.036 351.504 267.036 352.5C267.036 353.484 267.378 354.33 268.062 355.038ZM284.167 352.716V348H285.355V357H284.167V355.596C283.495 356.676 282.487 357.216 281.143 357.216C280.063 357.216 279.205 356.886 278.569 356.226C277.933 355.554 277.615 354.654 277.615 353.526V348H278.803V353.526C278.803 354.33 279.013 354.954 279.433 355.398C279.865 355.842 280.471 356.064 281.251 356.064C282.151 356.064 282.859 355.782 283.375 355.218C283.903 354.654 284.167 353.82 284.167 352.716ZM292.026 347.784C293.37 347.784 294.444 348.258 295.248 349.206C296.076 350.142 296.49 351.252 296.49 352.536C296.49 352.596 296.478 352.782 296.454 353.094H288.552C288.672 353.994 289.056 354.714 289.704 355.254C290.352 355.794 291.162 356.064 292.134 356.064C293.502 356.064 294.468 355.554 295.032 354.534L296.076 355.146C295.68 355.794 295.134 356.304 294.438 356.676C293.754 357.036 292.98 357.216 292.116 357.216C290.7 357.216 289.548 356.772 288.66 355.884C287.772 354.996 287.328 353.868 287.328 352.5C287.328 351.144 287.766 350.022 288.642 349.134C289.518 348.234 290.646 347.784 292.026 347.784ZM292.026 348.936C291.09 348.936 290.304 349.212 289.668 349.764C289.044 350.316 288.672 351.042 288.552 351.942H295.266C295.134 350.982 294.768 350.244 294.168 349.728C293.544 349.2 292.83 348.936 292.026 348.936ZM299.568 357H298.38V343.86H299.568V357ZM305.653 355.542L308.569 348H309.829L305.977 357.828C305.617 358.74 305.113 359.442 304.465 359.934C303.829 360.438 303.121 360.66 302.341 360.6V359.484C303.421 359.616 304.243 358.992 304.807 357.612L305.041 357.054L301.009 348H302.269L305.653 355.542ZM321.831 357.216C319.911 357.216 318.333 356.586 317.097 355.326C315.849 354.054 315.225 352.512 315.225 350.7C315.225 348.888 315.849 347.346 317.097 346.074C318.333 344.814 319.911 344.184 321.831 344.184C322.983 344.184 324.045 344.466 325.017 345.03C325.989 345.582 326.745 346.332 327.285 347.28L326.169 347.928C325.773 347.16 325.185 346.548 324.405 346.092C323.625 345.636 322.767 345.408 321.831 345.408C320.247 345.408 318.963 345.918 317.979 346.938C316.983 347.97 316.485 349.224 316.485 350.7C316.485 352.176 316.983 353.43 317.979 354.462C318.963 355.482 320.247 355.992 321.831 355.992C322.767 355.992 323.625 355.764 324.405 355.308C325.185 354.852 325.773 354.24 326.169 353.472L327.285 354.102C326.769 355.05 326.019 355.806 325.035 356.37C324.051 356.934 322.983 357.216 321.831 357.216ZM330.365 348V349.494C330.917 348.402 331.865 347.856 333.209 347.856V349.008C332.345 349.008 331.655 349.26 331.139 349.764C330.623 350.256 330.365 351 330.365 351.996V357H329.177V348H330.365ZM342.032 349.764V348H343.22V357H342.032V355.236C341.204 356.556 339.992 357.216 338.396 357.216C337.112 357.216 336.014 356.76 335.102 355.848C334.202 354.936 333.752 353.82 333.752 352.5C333.752 351.18 334.202 350.064 335.102 349.152C336.014 348.24 337.112 347.784 338.396 347.784C339.992 347.784 341.204 348.444 342.032 349.764ZM335.966 355.038C336.65 355.722 337.49 356.064 338.486 356.064C339.482 356.064 340.322 355.722 341.006 355.038C341.69 354.33 342.032 353.484 342.032 352.5C342.032 351.504 341.69 350.664 341.006 349.98C340.322 349.284 339.482 348.936 338.486 348.936C337.49 348.936 336.65 349.284 335.966 349.98C335.282 350.664 334.94 351.504 334.94 352.5C334.94 353.484 335.282 354.33 335.966 355.038ZM350.236 344.184V345.336C349.36 345.264 348.706 345.414 348.274 345.786C347.854 346.158 347.644 346.776 347.644 347.64V348H350.236V349.152H347.644V357H346.456V349.152H344.926V348H346.456V347.64C346.456 346.452 346.78 345.558 347.428 344.958C348.088 344.358 349.024 344.1 350.236 344.184ZM356.623 348V349.152H354.031V354.606C354.031 355.098 354.127 355.452 354.319 355.668C354.511 355.872 354.799 355.98 355.183 355.992C355.567 355.992 356.047 355.98 356.623 355.956V357C355.339 357.192 354.385 357.102 353.761 356.73C353.149 356.346 352.843 355.638 352.843 354.606V349.152H350.953V348H352.843V345.84L354.031 345.48V348H356.623ZM362.216 347.784C363.56 347.784 364.634 348.258 365.438 349.206C366.266 350.142 366.68 351.252 366.68 352.536C366.68 352.596 366.668 352.782 366.644 353.094H358.742C358.862 353.994 359.246 354.714 359.894 355.254C360.542 355.794 361.352 356.064 362.324 356.064C363.692 356.064 364.658 355.554 365.222 354.534L366.266 355.146C365.87 355.794 365.324 356.304 364.628 356.676C363.944 357.036 363.17 357.216 362.306 357.216C360.89 357.216 359.738 356.772 358.85 355.884C357.962 354.996 357.518 353.868 357.518 352.5C357.518 351.144 357.956 350.022 358.832 349.134C359.708 348.234 360.836 347.784 362.216 347.784ZM362.216 348.936C361.28 348.936 360.494 349.212 359.858 349.764C359.234 350.316 358.862 351.042 358.742 351.942H365.456C365.324 350.982 364.958 350.244 364.358 349.728C363.734 349.2 363.02 348.936 362.216 348.936ZM376.31 349.764V344.4H377.498V357H376.31V355.236C375.482 356.556 374.27 357.216 372.674 357.216C371.39 357.216 370.292 356.76 369.38 355.848C368.48 354.936 368.03 353.82 368.03 352.5C368.03 351.18 368.48 350.064 369.38 349.152C370.292 348.24 371.39 347.784 372.674 347.784C374.27 347.784 375.482 348.444 376.31 349.764ZM370.244 355.038C370.928 355.722 371.768 356.064 372.764 356.064C373.76 356.064 374.6 355.722 375.284 355.038C375.968 354.33 376.31 353.484 376.31 352.5C376.31 351.504 375.968 350.664 375.284 349.98C374.6 349.284 373.76 348.936 372.764 348.936C371.768 348.936 370.928 349.284 370.244 349.98C369.56 350.664 369.218 351.504 369.218 352.5C369.218 353.484 369.56 354.33 370.244 355.038ZM391.677 350.466C392.301 350.73 392.793 351.132 393.153 351.672C393.513 352.212 393.693 352.818 393.693 353.49C393.693 354.462 393.351 355.29 392.667 355.974C391.983 356.658 391.155 357 390.183 357H384.693V344.4H389.769C390.693 344.4 391.491 344.736 392.163 345.408C392.823 346.068 393.153 346.86 393.153 347.784C393.153 348.96 392.661 349.854 391.677 350.466ZM389.769 345.588H385.953V349.98H389.769C390.345 349.98 390.843 349.77 391.263 349.35C391.683 348.906 391.893 348.384 391.893 347.784C391.893 347.196 391.683 346.68 391.263 346.236C390.843 345.804 390.345 345.588 389.769 345.588ZM385.953 355.812H390.183C390.807 355.812 391.335 355.59 391.767 355.146C392.211 354.702 392.433 354.15 392.433 353.49C392.433 352.842 392.211 352.296 391.767 351.852C391.335 351.396 390.807 351.168 390.183 351.168H385.953V355.812ZM403.217 355.866C402.293 356.766 401.177 357.216 399.869 357.216C398.537 357.216 397.415 356.766 396.503 355.866C395.591 354.954 395.135 353.832 395.135 352.5C395.135 351.168 395.591 350.052 396.503 349.152C397.415 348.24 398.537 347.784 399.869 347.784C401.189 347.784 402.305 348.24 403.217 349.152C404.141 350.052 404.603 351.168 404.603 352.5C404.603 353.82 404.141 354.942 403.217 355.866ZM397.349 355.038C398.033 355.722 398.873 356.064 399.869 356.064C400.865 356.064 401.705 355.722 402.389 355.038C403.073 354.33 403.415 353.484 403.415 352.5C403.415 351.504 403.073 350.664 402.389 349.98C401.705 349.284 400.865 348.936 399.869 348.936C398.873 348.936 398.033 349.284 397.349 349.98C396.665 350.664 396.323 351.504 396.323 352.5C396.323 353.484 396.665 354.33 397.349 355.038ZM412.927 352.716V348H414.115V357H412.927V355.596C412.255 356.676 411.247 357.216 409.903 357.216C408.823 357.216 407.965 356.886 407.329 356.226C406.693 355.554 406.375 354.654 406.375 353.526V348H407.563V353.526C407.563 354.33 407.773 354.954 408.193 355.398C408.625 355.842 409.231 356.064 410.011 356.064C410.911 356.064 411.619 355.782 412.135 355.218C412.663 354.654 412.927 353.82 412.927 352.716ZM424.368 349.764V348H425.556V360.6H424.368V355.236C423.54 356.556 422.328 357.216 420.732 357.216C419.448 357.216 418.35 356.76 417.438 355.848C416.538 354.936 416.088 353.82 416.088 352.5C416.088 351.18 416.538 350.064 417.438 349.152C418.35 348.24 419.448 347.784 420.732 347.784C422.328 347.784 423.54 348.444 424.368 349.764ZM418.302 355.038C418.986 355.722 419.826 356.064 420.822 356.064C421.818 356.064 422.658 355.722 423.342 355.038C424.026 354.33 424.368 353.484 424.368 352.5C424.368 351.504 424.026 350.664 423.342 349.98C422.658 349.284 421.818 348.936 420.822 348.936C419.826 348.936 418.986 349.284 418.302 349.98C417.618 350.664 417.276 351.504 417.276 352.5C417.276 353.484 417.618 354.33 418.302 355.038ZM434.408 352.716V348H435.596V357H434.408V355.596C433.736 356.676 432.728 357.216 431.384 357.216C430.304 357.216 429.446 356.886 428.81 356.226C428.174 355.554 427.856 354.654 427.856 353.526V348H429.044V353.526C429.044 354.33 429.254 354.954 429.674 355.398C430.106 355.842 430.712 356.064 431.492 356.064C432.392 356.064 433.1 355.782 433.616 355.218C434.144 354.654 434.408 353.82 434.408 352.716ZM442.267 347.784C443.611 347.784 444.685 348.258 445.489 349.206C446.317 350.142 446.731 351.252 446.731 352.536C446.731 352.596 446.719 352.782 446.695 353.094H438.793C438.913 353.994 439.297 354.714 439.945 355.254C440.593 355.794 441.403 356.064 442.375 356.064C443.743 356.064 444.709 355.554 445.273 354.534L446.317 355.146C445.921 355.794 445.375 356.304 444.679 356.676C443.995 357.036 443.221 357.216 442.357 357.216C440.941 357.216 439.789 356.772 438.901 355.884C438.013 354.996 437.569 353.868 437.569 352.5C437.569 351.144 438.007 350.022 438.883 349.134C439.759 348.234 440.887 347.784 442.267 347.784ZM442.267 348.936C441.331 348.936 440.545 349.212 439.909 349.764C439.285 350.316 438.913 351.042 438.793 351.942H445.507C445.375 350.982 445.009 350.244 444.409 349.728C443.785 349.2 443.071 348.936 442.267 348.936ZM453.127 348V349.152H450.535V354.606C450.535 355.098 450.631 355.452 450.823 355.668C451.015 355.872 451.303 355.98 451.687 355.992C452.071 355.992 452.551 355.98 453.127 355.956V357C451.843 357.192 450.889 357.102 450.265 356.73C449.653 356.346 449.347 355.638 449.347 354.606V349.152H447.457V348H449.347V345.84L450.535 345.48V348H453.127ZM455.498 350.358C455.498 351.054 456.116 351.564 457.352 351.888C457.7 351.972 457.928 352.032 458.036 352.068C458.144 352.092 458.354 352.158 458.666 352.266C458.99 352.362 459.212 352.446 459.332 352.518C459.464 352.59 459.644 352.704 459.872 352.86C460.1 353.004 460.262 353.154 460.358 353.31C460.454 353.454 460.544 353.646 460.628 353.886C460.712 354.114 460.754 354.36 460.754 354.624C460.754 355.392 460.448 356.016 459.836 356.496C459.248 356.976 458.468 357.216 457.496 357.216C456.656 357.216 455.93 357.03 455.318 356.658C454.706 356.274 454.274 355.77 454.022 355.146L455.03 354.552C455.198 355.02 455.498 355.392 455.93 355.668C456.374 355.932 456.896 356.064 457.496 356.064C458.108 356.064 458.606 355.944 458.99 355.704C459.374 355.464 459.566 355.104 459.566 354.624C459.566 353.928 458.948 353.418 457.712 353.094C457.364 353.01 457.136 352.956 457.028 352.932C456.92 352.896 456.704 352.83 456.38 352.734C456.068 352.626 455.846 352.536 455.714 352.464C455.594 352.392 455.42 352.284 455.192 352.14C454.964 351.984 454.802 351.834 454.706 351.69C454.61 351.534 454.52 351.342 454.436 351.114C454.352 350.874 454.31 350.622 454.31 350.358C454.31 349.626 454.598 349.014 455.174 348.522C455.774 348.03 456.512 347.784 457.388 347.784C458.108 347.784 458.744 347.946 459.296 348.27C459.86 348.594 460.274 349.044 460.538 349.62L459.548 350.196C459.212 349.356 458.492 348.936 457.388 348.936C456.848 348.936 456.398 349.062 456.038 349.314C455.678 349.566 455.498 349.914 455.498 350.358ZM474.976 349.764V348H476.164V357H474.976V355.236C474.148 356.556 472.936 357.216 471.34 357.216C470.056 357.216 468.958 356.76 468.046 355.848C467.146 354.936 466.696 353.82 466.696 352.5C466.696 351.18 467.146 350.064 468.046 349.152C468.958 348.24 470.056 347.784 471.34 347.784C472.936 347.784 474.148 348.444 474.976 349.764ZM468.91 355.038C469.594 355.722 470.434 356.064 471.43 356.064C472.426 356.064 473.266 355.722 473.95 355.038C474.634 354.33 474.976 353.484 474.976 352.5C474.976 351.504 474.634 350.664 473.95 349.98C473.266 349.284 472.426 348.936 471.43 348.936C470.434 348.936 469.594 349.284 468.91 349.98C468.226 350.664 467.884 351.504 467.884 352.5C467.884 353.484 468.226 354.33 468.91 355.038ZM482.891 347.784C483.971 347.784 484.829 348.12 485.465 348.792C486.101 349.452 486.419 350.346 486.419 351.474V357H485.231V351.474C485.231 350.67 485.015 350.046 484.583 349.602C484.163 349.158 483.563 348.936 482.783 348.936C481.883 348.936 481.169 349.218 480.641 349.782C480.125 350.346 479.867 351.18 479.867 352.284V357H478.679V348H479.867V349.404C480.539 348.324 481.547 347.784 482.891 347.784ZM496.456 349.764V344.4H497.644V357H496.456V355.236C495.628 356.556 494.416 357.216 492.82 357.216C491.536 357.216 490.438 356.76 489.526 355.848C488.626 354.936 488.176 353.82 488.176 352.5C488.176 351.18 488.626 350.064 489.526 349.152C490.438 348.24 491.536 347.784 492.82 347.784C494.416 347.784 495.628 348.444 496.456 349.764ZM490.39 355.038C491.074 355.722 491.914 356.064 492.91 356.064C493.906 356.064 494.746 355.722 495.43 355.038C496.114 354.33 496.456 353.484 496.456 352.5C496.456 351.504 496.114 350.664 495.43 349.98C494.746 349.284 493.906 348.936 492.91 348.936C491.914 348.936 491.074 349.284 490.39 349.98C489.706 350.664 489.364 351.504 489.364 352.5C489.364 353.484 489.706 354.33 490.39 355.038ZM510.581 351.006H516.881V351.654C516.881 353.214 516.323 354.534 515.207 355.614C514.079 356.682 512.585 357.216 510.725 357.216C508.805 357.216 507.227 356.586 505.991 355.326C504.743 354.054 504.119 352.512 504.119 350.7C504.119 348.888 504.743 347.346 505.991 346.074C507.227 344.814 508.805 344.184 510.725 344.184C511.877 344.184 512.945 344.466 513.929 345.03C514.901 345.594 515.651 346.344 516.179 347.28L515.063 347.928C514.667 347.16 514.079 346.548 513.299 346.092C512.519 345.636 511.661 345.408 510.725 345.408C509.141 345.408 507.857 345.918 506.873 346.938C505.877 347.97 505.379 349.224 505.379 350.7C505.379 352.176 505.877 353.43 506.873 354.462C507.857 355.482 509.141 355.992 510.725 355.992C512.141 355.992 513.275 355.638 514.127 354.93C514.967 354.21 515.453 353.298 515.585 352.194H510.581V351.006ZM520.321 345.228C520.321 345.468 520.237 345.672 520.069 345.84C519.901 346.008 519.697 346.092 519.457 346.092C519.217 346.092 519.013 346.008 518.845 345.84C518.677 345.672 518.593 345.468 518.593 345.228C518.593 344.988 518.677 344.784 518.845 344.616C519.013 344.448 519.217 344.364 519.457 344.364C519.697 344.364 519.901 344.448 520.069 344.616C520.237 344.784 520.321 344.988 520.321 345.228ZM520.051 357H518.863V348H520.051V357ZM527.072 344.184V345.336C526.196 345.264 525.542 345.414 525.11 345.786C524.69 346.158 524.48 346.776 524.48 347.64V348H527.072V349.152H524.48V357H523.292V349.152H521.762V348H523.292V347.64C523.292 346.452 523.616 345.558 524.264 344.958C524.924 344.358 525.86 344.1 527.072 344.184ZM533.459 348V349.152H530.867V354.606C530.867 355.098 530.963 355.452 531.155 355.668C531.347 355.872 531.635 355.98 532.019 355.992C532.403 355.992 532.883 355.98 533.459 355.956V357C532.175 357.192 531.221 357.102 530.597 356.73C529.985 356.346 529.679 355.638 529.679 354.606V349.152H527.789V348H529.679V345.84L530.867 345.48V348H533.459ZM535.83 350.358C535.83 351.054 536.448 351.564 537.684 351.888C538.032 351.972 538.26 352.032 538.368 352.068C538.476 352.092 538.686 352.158 538.998 352.266C539.322 352.362 539.544 352.446 539.664 352.518C539.796 352.59 539.976 352.704 540.204 352.86C540.432 353.004 540.594 353.154 540.69 353.31C540.786 353.454 540.876 353.646 540.96 353.886C541.044 354.114 541.086 354.36 541.086 354.624C541.086 355.392 540.78 356.016 540.168 356.496C539.58 356.976 538.8 357.216 537.828 357.216C536.988 357.216 536.262 357.03 535.65 356.658C535.038 356.274 534.606 355.77 534.354 355.146L535.362 354.552C535.53 355.02 535.83 355.392 536.262 355.668C536.706 355.932 537.228 356.064 537.828 356.064C538.44 356.064 538.938 355.944 539.322 355.704C539.706 355.464 539.898 355.104 539.898 354.624C539.898 353.928 539.28 353.418 538.044 353.094C537.696 353.01 537.468 352.956 537.36 352.932C537.252 352.896 537.036 352.83 536.712 352.734C536.4 352.626 536.178 352.536 536.046 352.464C535.926 352.392 535.752 352.284 535.524 352.14C535.296 351.984 535.134 351.834 535.038 351.69C534.942 351.534 534.852 351.342 534.768 351.114C534.684 350.874 534.642 350.622 534.642 350.358C534.642 349.626 534.93 349.014 535.506 348.522C536.106 348.03 536.844 347.784 537.72 347.784C538.44 347.784 539.076 347.946 539.628 348.27C540.192 348.594 540.606 349.044 540.87 349.62L539.88 350.196C539.544 349.356 538.824 348.936 537.72 348.936C537.18 348.936 536.73 349.062 536.37 349.314C536.01 349.566 535.83 349.914 535.83 350.358ZM552.068 344.184V345.336C551.192 345.264 550.538 345.414 550.106 345.786C549.686 346.158 549.476 346.776 549.476 347.64V348H552.068V349.152H549.476V357H548.288V349.152H546.758V348H548.288V347.64C548.288 346.452 548.612 345.558 549.26 344.958C549.92 344.358 550.856 344.1 552.068 344.184ZM560.33 355.866C559.406 356.766 558.29 357.216 556.982 357.216C555.65 357.216 554.528 356.766 553.616 355.866C552.704 354.954 552.248 353.832 552.248 352.5C552.248 351.168 552.704 350.052 553.616 349.152C554.528 348.24 555.65 347.784 556.982 347.784C558.302 347.784 559.418 348.24 560.33 349.152C561.254 350.052 561.716 351.168 561.716 352.5C561.716 353.82 561.254 354.942 560.33 355.866ZM554.462 355.038C555.146 355.722 555.986 356.064 556.982 356.064C557.978 356.064 558.818 355.722 559.502 355.038C560.186 354.33 560.528 353.484 560.528 352.5C560.528 351.504 560.186 350.664 559.502 349.98C558.818 349.284 557.978 348.936 556.982 348.936C555.986 348.936 555.146 349.284 554.462 349.98C553.778 350.664 553.436 351.504 553.436 352.5C553.436 353.484 553.778 354.33 554.462 355.038ZM564.892 348V349.494C565.444 348.402 566.392 347.856 567.736 347.856V349.008C566.872 349.008 566.182 349.26 565.666 349.764C565.15 350.256 564.892 351 564.892 351.996V357H563.704V348H564.892ZM583.764 357H582.432L581.262 353.904H575.286L574.116 357H572.784L577.626 344.4H578.922L583.764 357ZM578.274 345.966L575.736 352.716H580.812L578.274 345.966ZM589.414 347.784C590.494 347.784 591.352 348.12 591.988 348.792C592.624 349.452 592.942 350.346 592.942 351.474V357H591.754V351.474C591.754 350.67 591.538 350.046 591.106 349.602C590.686 349.158 590.086 348.936 589.306 348.936C588.406 348.936 587.692 349.218 587.164 349.782C586.648 350.346 586.39 351.18 586.39 352.284V357H585.202V348H586.39V349.404C587.062 348.324 588.07 347.784 589.414 347.784ZM598.628 355.542L601.544 348H602.804L598.952 357.828C598.592 358.74 598.088 359.442 597.44 359.934C596.804 360.438 596.096 360.66 595.316 360.6V359.484C596.396 359.616 597.218 358.992 597.782 357.612L598.016 357.054L593.984 348H595.244L598.628 355.542ZM144.53 380.326C143.27 381.586 141.728 382.216 139.904 382.216C138.08 382.216 136.538 381.586 135.278 380.326C134.018 379.042 133.388 377.5 133.388 375.7C133.388 373.888 134.018 372.352 135.278 371.092C136.538 369.82 138.08 369.184 139.904 369.184C141.728 369.184 143.27 369.82 144.53 371.092C145.79 372.352 146.42 373.888 146.42 375.7C146.42 377.5 145.79 379.042 144.53 380.326ZM134.648 375.7C134.648 377.188 135.152 378.442 136.16 379.462C137.168 380.482 138.416 380.992 139.904 380.992C141.392 380.992 142.64 380.482 143.648 379.462C144.656 378.442 145.16 377.188 145.16 375.7C145.16 374.224 144.656 372.976 143.648 371.956C142.64 370.924 141.392 370.408 139.904 370.408C138.416 370.408 137.168 370.924 136.16 371.956C135.152 372.976 134.648 374.224 134.648 375.7ZM152.589 382.216C151.233 382.216 150.105 381.766 149.205 380.866C148.305 379.942 147.855 378.82 147.855 377.5C147.855 376.168 148.305 375.052 149.205 374.152C150.105 373.24 151.233 372.784 152.589 372.784C153.477 372.784 154.275 373 154.983 373.432C155.691 373.852 156.207 374.422 156.531 375.142L155.559 375.7C155.319 375.16 154.929 374.734 154.389 374.422C153.861 374.098 153.261 373.936 152.589 373.936C151.593 373.936 150.753 374.284 150.069 374.98C149.385 375.664 149.043 376.504 149.043 377.5C149.043 378.484 149.385 379.33 150.069 380.038C150.753 380.722 151.593 381.064 152.589 381.064C153.249 381.064 153.843 380.908 154.371 380.596C154.911 380.284 155.331 379.852 155.631 379.3L156.621 379.876C156.249 380.596 155.703 381.166 154.983 381.586C154.263 382.006 153.465 382.216 152.589 382.216ZM162.433 382.216C161.077 382.216 159.949 381.766 159.049 380.866C158.149 379.942 157.699 378.82 157.699 377.5C157.699 376.168 158.149 375.052 159.049 374.152C159.949 373.24 161.077 372.784 162.433 372.784C163.321 372.784 164.119 373 164.827 373.432C165.535 373.852 166.051 374.422 166.375 375.142L165.403 375.7C165.163 375.16 164.773 374.734 164.233 374.422C163.705 374.098 163.105 373.936 162.433 373.936C161.437 373.936 160.597 374.284 159.913 374.98C159.229 375.664 158.887 376.504 158.887 377.5C158.887 378.484 159.229 379.33 159.913 380.038C160.597 380.722 161.437 381.064 162.433 381.064C163.093 381.064 163.687 380.908 164.215 380.596C164.755 380.284 165.175 379.852 165.475 379.3L166.465 379.876C166.093 380.596 165.547 381.166 164.827 381.586C164.107 382.006 163.309 382.216 162.433 382.216ZM175.822 374.764V373H177.01V382H175.822V380.236C174.994 381.556 173.782 382.216 172.186 382.216C170.902 382.216 169.804 381.76 168.892 380.848C167.992 379.936 167.542 378.82 167.542 377.5C167.542 376.18 167.992 375.064 168.892 374.152C169.804 373.24 170.902 372.784 172.186 372.784C173.782 372.784 174.994 373.444 175.822 374.764ZM169.756 380.038C170.44 380.722 171.28 381.064 172.276 381.064C173.272 381.064 174.112 380.722 174.796 380.038C175.48 379.33 175.822 378.484 175.822 377.5C175.822 376.504 175.48 375.664 174.796 374.98C174.112 374.284 173.272 373.936 172.276 373.936C171.28 373.936 170.44 374.284 169.756 374.98C169.072 375.664 168.73 376.504 168.73 377.5C168.73 378.484 169.072 379.33 169.756 380.038ZM180.462 375.358C180.462 376.054 181.08 376.564 182.316 376.888C182.664 376.972 182.892 377.032 183 377.068C183.108 377.092 183.318 377.158 183.63 377.266C183.954 377.362 184.176 377.446 184.296 377.518C184.428 377.59 184.608 377.704 184.836 377.86C185.064 378.004 185.226 378.154 185.322 378.31C185.418 378.454 185.508 378.646 185.592 378.886C185.676 379.114 185.718 379.36 185.718 379.624C185.718 380.392 185.412 381.016 184.8 381.496C184.212 381.976 183.432 382.216 182.46 382.216C181.62 382.216 180.894 382.03 180.282 381.658C179.67 381.274 179.238 380.77 178.986 380.146L179.994 379.552C180.162 380.02 180.462 380.392 180.894 380.668C181.338 380.932 181.86 381.064 182.46 381.064C183.072 381.064 183.57 380.944 183.954 380.704C184.338 380.464 184.53 380.104 184.53 379.624C184.53 378.928 183.912 378.418 182.676 378.094C182.328 378.01 182.1 377.956 181.992 377.932C181.884 377.896 181.668 377.83 181.344 377.734C181.032 377.626 180.81 377.536 180.678 377.464C180.558 377.392 180.384 377.284 180.156 377.14C179.928 376.984 179.766 376.834 179.67 376.69C179.574 376.534 179.484 376.342 179.4 376.114C179.316 375.874 179.274 375.622 179.274 375.358C179.274 374.626 179.562 374.014 180.138 373.522C180.738 373.03 181.476 372.784 182.352 372.784C183.072 372.784 183.708 372.946 184.26 373.27C184.824 373.594 185.238 374.044 185.502 374.62L184.512 375.196C184.176 374.356 183.456 373.936 182.352 373.936C181.812 373.936 181.362 374.062 181.002 374.314C180.642 374.566 180.462 374.914 180.462 375.358ZM189.07 370.228C189.07 370.468 188.986 370.672 188.818 370.84C188.65 371.008 188.446 371.092 188.206 371.092C187.966 371.092 187.762 371.008 187.594 370.84C187.426 370.672 187.342 370.468 187.342 370.228C187.342 369.988 187.426 369.784 187.594 369.616C187.762 369.448 187.966 369.364 188.206 369.364C188.446 369.364 188.65 369.448 188.818 369.616C188.986 369.784 189.07 369.988 189.07 370.228ZM188.8 382H187.612V373H188.8V382ZM198.863 380.866C197.939 381.766 196.823 382.216 195.515 382.216C194.183 382.216 193.061 381.766 192.149 380.866C191.237 379.954 190.781 378.832 190.781 377.5C190.781 376.168 191.237 375.052 192.149 374.152C193.061 373.24 194.183 372.784 195.515 372.784C196.835 372.784 197.951 373.24 198.863 374.152C199.787 375.052 200.249 376.168 200.249 377.5C200.249 378.82 199.787 379.942 198.863 380.866ZM192.995 380.038C193.679 380.722 194.519 381.064 195.515 381.064C196.511 381.064 197.351 380.722 198.035 380.038C198.719 379.33 199.061 378.484 199.061 377.5C199.061 376.504 198.719 375.664 198.035 374.98C197.351 374.284 196.511 373.936 195.515 373.936C194.519 373.936 193.679 374.284 192.995 374.98C192.311 375.664 191.969 376.504 191.969 377.5C191.969 378.484 192.311 379.33 192.995 380.038ZM206.449 372.784C207.529 372.784 208.387 373.12 209.023 373.792C209.659 374.452 209.977 375.346 209.977 376.474V382H208.789V376.474C208.789 375.67 208.573 375.046 208.141 374.602C207.721 374.158 207.121 373.936 206.341 373.936C205.441 373.936 204.727 374.218 204.199 374.782C203.683 375.346 203.425 376.18 203.425 377.284V382H202.237V373H203.425V374.404C204.097 373.324 205.105 372.784 206.449 372.784ZM214.074 373.81C214.074 374.086 213.978 374.32 213.786 374.512C213.594 374.704 213.36 374.8 213.084 374.8C212.808 374.8 212.574 374.704 212.382 374.512C212.19 374.32 212.094 374.086 212.094 373.81C212.094 373.534 212.19 373.3 212.382 373.108C212.574 372.916 212.808 372.82 213.084 372.82C213.36 372.82 213.594 372.916 213.786 373.108C213.978 373.3 214.074 373.534 214.074 373.81ZM214.074 381.19C214.074 381.466 213.978 381.7 213.786 381.892C213.594 382.084 213.36 382.18 213.084 382.18C212.808 382.18 212.574 382.084 212.382 381.892C212.19 381.7 212.094 381.466 212.094 381.19C212.094 380.914 212.19 380.68 212.382 380.488C212.574 380.296 212.808 380.2 213.084 380.2C213.36 380.2 213.594 380.296 213.786 380.488C213.978 380.68 214.074 380.914 214.074 381.19ZM225.062 382.216C223.91 382.216 222.92 381.946 222.092 381.406C221.276 380.854 220.706 380.098 220.382 379.138L221.462 378.508C221.69 379.3 222.11 379.912 222.722 380.344C223.346 380.776 224.132 380.992 225.08 380.992C226.004 380.992 226.73 380.788 227.258 380.38C227.786 379.972 228.05 379.42 228.05 378.724C228.05 378.064 227.81 377.566 227.33 377.23C226.862 376.894 226.07 376.546 224.954 376.186C223.622 375.742 222.758 375.394 222.362 375.142C221.402 374.566 220.922 373.732 220.922 372.64C220.922 371.572 221.294 370.732 222.038 370.12C222.77 369.496 223.688 369.184 224.792 369.184C225.74 369.184 226.58 369.436 227.312 369.94C228.044 370.432 228.59 371.086 228.95 371.902L227.888 372.496C227.312 371.104 226.28 370.408 224.792 370.408C224 370.408 223.364 370.606 222.884 371.002C222.416 371.386 222.182 371.914 222.182 372.586C222.182 373.222 222.398 373.69 222.83 373.99C223.274 374.302 223.988 374.62 224.972 374.944L225.944 375.286C226.148 375.346 226.436 375.454 226.808 375.61C227.216 375.766 227.498 375.898 227.654 376.006C228.29 376.39 228.692 376.744 228.86 377.068C229.16 377.548 229.31 378.088 229.31 378.688C229.31 379.756 228.92 380.614 228.14 381.262C227.36 381.898 226.334 382.216 225.062 382.216ZM236.117 372.784C237.401 372.784 238.493 373.24 239.393 374.152C240.305 375.064 240.761 376.18 240.761 377.5C240.761 378.82 240.305 379.936 239.393 380.848C238.493 381.76 237.401 382.216 236.117 382.216C234.521 382.216 233.309 381.556 232.481 380.236V385.6H231.293V373H232.481V374.764C233.309 373.444 234.521 372.784 236.117 372.784ZM233.507 380.038C234.191 380.722 235.031 381.064 236.027 381.064C237.023 381.064 237.863 380.722 238.547 380.038C239.231 379.33 239.573 378.484 239.573 377.5C239.573 376.504 239.231 375.664 238.547 374.98C237.863 374.284 237.023 373.936 236.027 373.936C235.031 373.936 234.191 374.284 233.507 374.98C232.823 375.664 232.481 376.504 232.481 377.5C232.481 378.484 232.823 379.33 233.507 380.038ZM243.925 373V374.494C244.477 373.402 245.425 372.856 246.769 372.856V374.008C245.905 374.008 245.215 374.26 244.699 374.764C244.183 375.256 243.925 376 243.925 376.996V382H242.737V373H243.925ZM252.01 372.784C253.354 372.784 254.428 373.258 255.232 374.206C256.06 375.142 256.474 376.252 256.474 377.536C256.474 377.596 256.462 377.782 256.438 378.094H248.536C248.656 378.994 249.04 379.714 249.688 380.254C250.336 380.794 251.146 381.064 252.118 381.064C253.486 381.064 254.452 380.554 255.016 379.534L256.06 380.146C255.664 380.794 255.118 381.304 254.422 381.676C253.738 382.036 252.964 382.216 252.1 382.216C250.684 382.216 249.532 381.772 248.644 380.884C247.756 379.996 247.312 378.868 247.312 377.5C247.312 376.144 247.75 375.022 248.626 374.134C249.502 373.234 250.63 372.784 252.01 372.784ZM252.01 373.936C251.074 373.936 250.288 374.212 249.652 374.764C249.028 375.316 248.656 376.042 248.536 376.942H255.25C255.118 375.982 254.752 375.244 254.152 374.728C253.528 374.2 252.814 373.936 252.01 373.936ZM266.104 374.764V373H267.292V382H266.104V380.236C265.276 381.556 264.064 382.216 262.468 382.216C261.184 382.216 260.086 381.76 259.174 380.848C258.274 379.936 257.824 378.82 257.824 377.5C257.824 376.18 258.274 375.064 259.174 374.152C260.086 373.24 261.184 372.784 262.468 372.784C264.064 372.784 265.276 373.444 266.104 374.764ZM260.038 380.038C260.722 380.722 261.562 381.064 262.558 381.064C263.554 381.064 264.394 380.722 265.078 380.038C265.762 379.33 266.104 378.484 266.104 377.5C266.104 376.504 265.762 375.664 265.078 374.98C264.394 374.284 263.554 373.936 262.558 373.936C261.562 373.936 260.722 374.284 260.038 374.98C259.354 375.664 259.012 376.504 259.012 377.5C259.012 378.484 259.354 379.33 260.038 380.038ZM277.547 374.764V369.4H278.735V382H277.547V380.236C276.719 381.556 275.507 382.216 273.911 382.216C272.627 382.216 271.529 381.76 270.617 380.848C269.717 379.936 269.267 378.82 269.267 377.5C269.267 376.18 269.717 375.064 270.617 374.152C271.529 373.24 272.627 372.784 273.911 372.784C275.507 372.784 276.719 373.444 277.547 374.764ZM271.481 380.038C272.165 380.722 273.005 381.064 274.001 381.064C274.997 381.064 275.837 380.722 276.521 380.038C277.205 379.33 277.547 378.484 277.547 377.5C277.547 376.504 277.205 375.664 276.521 374.98C275.837 374.284 274.997 373.936 274.001 373.936C273.005 373.936 272.165 374.284 271.481 374.98C270.797 375.664 270.455 376.504 270.455 377.5C270.455 378.484 270.797 379.33 271.481 380.038ZM289.044 382.216C288.144 382.216 287.352 382.03 286.668 381.658C285.984 381.286 285.498 380.752 285.21 380.056L286.272 379.426C286.668 380.47 287.592 380.992 289.044 380.992C289.944 380.992 290.646 380.776 291.15 380.344C291.666 379.912 291.924 379.276 291.924 378.436V369.4H293.184V378.436C293.184 379.66 292.788 380.596 291.996 381.244C291.216 381.892 290.232 382.216 289.044 382.216ZM303.154 380.866C302.23 381.766 301.114 382.216 299.806 382.216C298.474 382.216 297.352 381.766 296.44 380.866C295.528 379.954 295.072 378.832 295.072 377.5C295.072 376.168 295.528 375.052 296.44 374.152C297.352 373.24 298.474 372.784 299.806 372.784C301.126 372.784 302.242 373.24 303.154 374.152C304.078 375.052 304.54 376.168 304.54 377.5C304.54 378.82 304.078 379.942 303.154 380.866ZM297.286 380.038C297.97 380.722 298.81 381.064 299.806 381.064C300.802 381.064 301.642 380.722 302.326 380.038C303.01 379.33 303.352 378.484 303.352 377.5C303.352 376.504 303.01 375.664 302.326 374.98C301.642 374.284 300.802 373.936 299.806 373.936C298.81 373.936 297.97 374.284 297.286 374.98C296.602 375.664 296.26 376.504 296.26 377.5C296.26 378.484 296.602 379.33 297.286 380.038ZM309.74 380.542L312.656 373H313.916L310.064 382.828C309.704 383.74 309.2 384.442 308.552 384.934C307.916 385.438 307.208 385.66 306.428 385.6V384.484C307.508 384.616 308.33 383.992 308.894 382.612L309.128 382.054L305.096 373H306.356L309.74 380.542ZM328.474 380.47L330.688 373H331.912L329.14 382H327.844L325.522 374.746L323.2 382H321.904L319.132 373H320.356L322.57 380.47L324.928 373H326.116L328.474 380.47ZM335.161 370.228C335.161 370.468 335.077 370.672 334.909 370.84C334.741 371.008 334.537 371.092 334.297 371.092C334.057 371.092 333.853 371.008 333.685 370.84C333.517 370.672 333.433 370.468 333.433 370.228C333.433 369.988 333.517 369.784 333.685 369.616C333.853 369.448 334.057 369.364 334.297 369.364C334.537 369.364 334.741 369.448 334.909 369.616C335.077 369.784 335.161 369.988 335.161 370.228ZM334.891 382H333.703V373H334.891V382ZM342.182 373V374.152H339.59V379.606C339.59 380.098 339.686 380.452 339.878 380.668C340.07 380.872 340.358 380.98 340.742 380.992C341.126 380.992 341.606 380.98 342.182 380.956V382C340.898 382.192 339.944 382.102 339.32 381.73C338.708 381.346 338.402 380.638 338.402 379.606V374.152H336.512V373H338.402V370.84L339.59 370.48V373H342.182ZM348.374 372.784C349.454 372.784 350.312 373.12 350.948 373.792C351.584 374.452 351.902 375.346 351.902 376.474V382H350.714V376.474C350.714 375.67 350.498 375.046 350.066 374.602C349.646 374.158 349.046 373.936 348.266 373.936C347.366 373.936 346.652 374.218 346.124 374.782C345.608 375.346 345.35 376.18 345.35 377.284V382H344.162V369.4H345.35V374.404C346.022 373.324 347.03 372.784 348.374 372.784ZM369.301 380.326C368.041 381.586 366.499 382.216 364.675 382.216C362.851 382.216 361.309 381.586 360.049 380.326C358.789 379.042 358.159 377.5 358.159 375.7C358.159 373.888 358.789 372.352 360.049 371.092C361.309 369.82 362.851 369.184 364.675 369.184C366.499 369.184 368.041 369.82 369.301 371.092C370.561 372.352 371.191 373.888 371.191 375.7C371.191 377.5 370.561 379.042 369.301 380.326ZM359.419 375.7C359.419 377.188 359.923 378.442 360.931 379.462C361.939 380.482 363.187 380.992 364.675 380.992C366.163 380.992 367.411 380.482 368.419 379.462C369.427 378.442 369.931 377.188 369.931 375.7C369.931 374.224 369.427 372.976 368.419 371.956C367.411 370.924 366.163 370.408 364.675 370.408C363.187 370.408 361.939 370.924 360.931 371.956C359.923 372.976 359.419 374.224 359.419 375.7ZM379.59 377.716V373H380.778V382H379.59V380.596C378.918 381.676 377.91 382.216 376.566 382.216C375.486 382.216 374.628 381.886 373.992 381.226C373.356 380.554 373.038 379.654 373.038 378.526V373H374.226V378.526C374.226 379.33 374.436 379.954 374.856 380.398C375.288 380.842 375.894 381.064 376.674 381.064C377.574 381.064 378.282 380.782 378.798 380.218C379.326 379.654 379.59 378.82 379.59 377.716ZM384.479 373V374.494C385.031 373.402 385.979 372.856 387.323 372.856V374.008C386.459 374.008 385.769 374.26 385.253 374.764C384.737 375.256 384.479 376 384.479 376.996V382H383.291V373H384.479ZM398.671 382.216C396.859 382.216 395.419 381.556 394.351 380.236C393.295 378.916 392.929 377.344 393.253 375.52C393.553 373.732 394.423 372.226 395.863 371.002C397.315 369.79 398.971 369.184 400.831 369.184C401.995 369.16 403.039 369.472 403.963 370.12C404.899 370.756 405.577 371.602 405.997 372.658C406.417 373.714 406.513 374.818 406.285 375.97C405.961 377.782 405.085 379.276 403.657 380.452C402.229 381.628 400.567 382.216 398.671 382.216ZM398.887 380.992C400.435 380.992 401.773 380.5 402.901 379.516C404.041 378.532 404.749 377.29 405.025 375.79C405.277 374.29 404.983 373.024 404.143 371.992C403.315 370.936 402.139 370.408 400.615 370.408C399.091 370.408 397.759 370.918 396.619 371.938C395.467 372.97 394.765 374.224 394.513 375.7C394.249 377.176 394.531 378.43 395.359 379.462C396.199 380.482 397.375 380.992 398.887 380.992ZM412.939 372.784C414.031 372.784 414.847 373.12 415.387 373.792C415.927 374.464 416.101 375.358 415.909 376.474L414.937 382H413.749L414.721 376.474C414.997 374.782 414.331 373.936 412.723 373.936C411.847 373.936 411.097 374.206 410.473 374.746C409.861 375.274 409.453 376.06 409.249 377.104L408.385 382H407.197L408.781 373H409.969L409.753 374.26C410.557 373.276 411.619 372.784 412.939 372.784ZM418.44 382H417.252L418.188 376.618L419.556 368.86H420.744L419.376 376.618L418.44 382ZM423.462 371.092C423.222 371.092 423.036 371.008 422.904 370.84C422.772 370.672 422.724 370.468 422.76 370.228C422.796 369.988 422.91 369.784 423.102 369.616C423.294 369.448 423.516 369.364 423.768 369.364C424.008 369.364 424.2 369.448 424.344 369.616C424.488 369.784 424.536 369.988 424.488 370.228C424.44 370.48 424.32 370.69 424.128 370.858C423.936 371.014 423.714 371.092 423.462 371.092ZM422.148 382H420.96L422.544 373H423.732L422.148 382ZM430.411 372.784C431.503 372.784 432.319 373.12 432.859 373.792C433.399 374.464 433.573 375.358 433.381 376.474L432.409 382H431.221L432.193 376.474C432.469 374.782 431.803 373.936 430.195 373.936C429.319 373.936 428.569 374.206 427.945 374.746C427.333 375.274 426.925 376.06 426.721 377.104L425.857 382H424.669L426.253 373H427.441L427.225 374.26C428.029 373.276 429.091 372.784 430.411 372.784ZM440.34 372.784C441.696 372.784 442.728 373.252 443.436 374.188C444.156 375.136 444.384 376.252 444.12 377.536C444.096 377.704 444.048 377.89 443.976 378.094H436.11C436.074 379.006 436.326 379.732 436.866 380.272C437.418 380.8 438.168 381.064 439.116 381.064C440.496 381.064 441.558 380.548 442.302 379.516L443.238 380.128C442.818 380.776 442.212 381.286 441.42 381.658C440.64 382.03 439.818 382.216 438.954 382.216C437.562 382.216 436.494 381.748 435.75 380.812C435.006 379.876 434.754 378.712 434.994 377.32C435.234 375.988 435.852 374.902 436.848 374.062C437.88 373.21 439.044 372.784 440.34 372.784ZM436.29 376.942H442.986C443.058 375.982 442.848 375.244 442.356 374.728C441.864 374.2 441.168 373.936 440.268 373.936C439.332 373.936 438.504 374.212 437.784 374.764C437.064 375.304 436.566 376.03 436.29 376.942ZM459.222 369.4L459.006 370.588H453.156L452.346 375.232H457.926L457.71 376.42H452.13L451.158 382H449.898L452.112 369.4H459.222ZM460.188 382H459L459.936 376.618L461.304 368.86H462.492L461.124 376.618L460.188 382ZM466.974 382.216C465.702 382.216 464.652 381.778 463.824 380.902C463.008 380.014 462.726 378.85 462.978 377.41C463.23 375.946 463.902 374.812 464.994 374.008C466.098 373.192 467.286 372.784 468.558 372.784C469.794 372.784 470.808 373.228 471.6 374.116C472.404 374.992 472.68 376.144 472.428 377.572C472.26 378.58 471.882 379.444 471.294 380.164C470.178 381.532 468.738 382.216 466.974 382.216ZM467.082 381.064C468.042 381.064 468.93 380.746 469.746 380.11C470.55 379.486 471.054 378.598 471.258 377.446C471.45 376.366 471.246 375.508 470.646 374.872C470.058 374.248 469.29 373.936 468.342 373.936C467.358 373.96 466.47 374.278 465.678 374.89C464.862 375.526 464.358 376.396 464.166 377.5C463.962 378.628 464.16 379.51 464.76 380.146C465.36 380.782 466.134 381.088 467.082 381.064ZM482.128 380.47L485.656 373H486.934L482.578 382H481.282L480.238 374.746L476.638 382H475.342L474.154 373H475.324L476.224 380.47L479.896 373H481.102L481.084 373.036L482.128 380.47ZM492.424 372.784C493.78 372.784 494.812 373.252 495.52 374.188C496.24 375.136 496.468 376.252 496.204 377.536C496.18 377.704 496.132 377.89 496.06 378.094H488.194C488.158 379.006 488.41 379.732 488.95 380.272C489.502 380.8 490.252 381.064 491.2 381.064C492.58 381.064 493.642 380.548 494.386 379.516L495.322 380.128C494.902 380.776 494.296 381.286 493.504 381.658C492.724 382.03 491.902 382.216 491.038 382.216C489.646 382.216 488.578 381.748 487.834 380.812C487.09 379.876 486.838 378.712 487.078 377.32C487.318 375.988 487.936 374.902 488.932 374.062C489.964 373.21 491.128 372.784 492.424 372.784ZM488.374 376.942H495.07C495.142 375.982 494.932 375.244 494.44 374.728C493.948 374.2 493.252 373.936 492.352 373.936C491.416 373.936 490.588 374.212 489.868 374.764C489.148 375.304 488.65 376.03 488.374 376.942ZM500.074 373L499.858 374.26C500.662 373.24 501.694 372.772 502.954 372.856L502.738 374.008C501.874 374.008 501.136 374.26 500.524 374.764C499.924 375.256 499.54 376 499.372 376.996L498.49 382H497.302L498.886 373H500.074ZM509.874 369.4H514.734C516.402 369.4 517.704 370.042 518.64 371.326C519.576 372.598 519.888 374.116 519.576 375.88C519.276 377.608 518.46 379.066 517.128 380.254C515.82 381.418 514.284 382 512.52 382H507.66L509.874 369.4ZM514.536 370.588H510.918L509.136 380.812H512.736C514.116 380.812 515.334 380.32 516.39 379.336C517.446 378.352 518.1 377.14 518.352 375.7C518.604 374.272 518.376 373.06 517.668 372.064C516.972 371.08 515.928 370.588 514.536 370.588ZM526.104 372.784C527.46 372.784 528.492 373.252 529.2 374.188C529.92 375.136 530.148 376.252 529.884 377.536C529.86 377.704 529.812 377.89 529.74 378.094H521.874C521.838 379.006 522.09 379.732 522.63 380.272C523.182 380.8 523.932 381.064 524.88 381.064C526.26 381.064 527.322 380.548 528.066 379.516L529.002 380.128C528.582 380.776 527.976 381.286 527.184 381.658C526.404 382.03 525.582 382.216 524.718 382.216C523.326 382.216 522.258 381.748 521.514 380.812C520.77 379.876 520.518 378.712 520.758 377.32C520.998 375.988 521.616 374.902 522.612 374.062C523.644 373.21 524.808 372.784 526.104 372.784ZM522.054 376.942H528.75C528.822 375.982 528.612 375.244 528.12 374.728C527.628 374.2 526.932 373.936 526.032 373.936C525.096 373.936 524.268 374.212 523.548 374.764C522.828 375.304 522.33 376.03 522.054 376.942ZM532.188 382H531L531.936 376.618L533.304 368.86H534.492L533.124 376.618L532.188 382ZM537.21 371.092C536.97 371.092 536.784 371.008 536.652 370.84C536.52 370.672 536.472 370.468 536.508 370.228C536.544 369.988 536.658 369.784 536.85 369.616C537.042 369.448 537.264 369.364 537.516 369.364C537.756 369.364 537.948 369.448 538.092 369.616C538.236 369.784 538.284 369.988 538.236 370.228C538.188 370.48 538.068 370.69 537.876 370.858C537.684 371.014 537.462 371.092 537.21 371.092ZM535.896 382H534.708L536.292 373H537.48L535.896 382ZM541.549 380.704L545.689 373H547.021L542.107 382H540.667L538.921 373H540.127L541.549 380.704ZM552.155 372.784C553.511 372.784 554.543 373.252 555.251 374.188C555.971 375.136 556.199 376.252 555.935 377.536C555.911 377.704 555.863 377.89 555.791 378.094H547.925C547.889 379.006 548.141 379.732 548.681 380.272C549.233 380.8 549.983 381.064 550.931 381.064C552.311 381.064 553.373 380.548 554.117 379.516L555.053 380.128C554.633 380.776 554.027 381.286 553.235 381.658C552.455 382.03 551.633 382.216 550.769 382.216C549.377 382.216 548.309 381.748 547.565 380.812C546.821 379.876 546.569 378.712 546.809 377.32C547.049 375.988 547.667 374.902 548.663 374.062C549.695 373.21 550.859 372.784 552.155 372.784ZM548.105 376.942H554.801C554.873 375.982 554.663 375.244 554.171 374.728C553.679 374.2 552.983 373.936 552.083 373.936C551.147 373.936 550.319 374.212 549.599 374.764C548.879 375.304 548.381 376.03 548.105 376.942ZM559.804 373L559.588 374.26C560.392 373.24 561.424 372.772 562.684 372.856L562.468 374.008C561.604 374.008 560.866 374.26 560.254 374.764C559.654 375.256 559.27 376 559.102 376.996L558.22 382H557.032L558.616 373H559.804ZM566.594 380.65L570.878 373H572.21L566.63 382.828C566.09 383.776 565.466 384.49 564.758 384.97C564.05 385.45 563.3 385.66 562.508 385.6L562.706 384.484C563.702 384.592 564.608 383.968 565.424 382.612L565.802 381.982L563.39 373H564.596L566.594 380.65ZM580.9 382.216C579.748 382.216 578.788 381.946 578.02 381.406C577.264 380.866 576.766 380.11 576.526 379.138L577.624 378.562C577.768 379.33 578.122 379.93 578.686 380.362C579.25 380.782 580 380.992 580.936 380.992C581.824 380.992 582.568 380.806 583.168 380.434C583.768 380.062 584.14 379.552 584.284 378.904C584.476 378.016 584.05 377.308 583.006 376.78C582.682 376.612 582.178 376.414 581.494 376.186C580.522 375.85 579.712 375.436 579.064 374.944C578.272 374.296 577.99 373.408 578.218 372.28C578.41 371.272 578.92 370.504 579.748 369.976C580.588 369.448 581.5 369.184 582.484 369.184C583.48 369.184 584.302 369.424 584.95 369.904C585.61 370.384 586.09 371.038 586.39 371.866L585.274 372.442C584.818 371.086 583.864 370.408 582.412 370.408C581.716 370.408 581.086 370.582 580.522 370.93C579.958 371.278 579.61 371.77 579.478 372.406C579.31 373.186 579.538 373.78 580.162 374.188C580.666 374.524 581.35 374.842 582.214 375.142C583.438 375.586 584.296 376.036 584.788 376.492C585.484 377.152 585.73 378.004 585.526 379.048C585.334 380.068 584.806 380.854 583.942 381.406C583.102 381.946 582.088 382.216 580.9 382.216ZM592.707 372.784C594.063 372.784 595.095 373.252 595.803 374.188C596.523 375.136 596.751 376.252 596.487 377.536C596.463 377.704 596.415 377.89 596.343 378.094H588.477C588.441 379.006 588.693 379.732 589.233 380.272C589.785 380.8 590.535 381.064 591.483 381.064C592.863 381.064 593.925 380.548 594.669 379.516L595.605 380.128C595.185 380.776 594.579 381.286 593.787 381.658C593.007 382.03 592.185 382.216 591.321 382.216C589.929 382.216 588.861 381.748 588.117 380.812C587.373 379.876 587.121 378.712 587.361 377.32C587.601 375.988 588.219 374.902 589.215 374.062C590.247 373.21 591.411 372.784 592.707 372.784ZM588.657 376.942H595.353C595.425 375.982 595.215 375.244 594.723 374.728C594.231 374.2 593.535 373.936 592.635 373.936C591.699 373.936 590.871 374.212 590.151 374.764C589.431 375.304 588.933 376.03 588.657 376.942ZM600.357 373L600.141 374.26C600.945 373.24 601.977 372.772 603.237 372.856L603.021 374.008C602.157 374.008 601.419 374.26 600.807 374.764C600.207 375.256 599.823 376 599.655 376.996L598.773 382H597.585L599.169 373H600.357ZM606.395 380.704L610.535 373H611.867L606.953 382H605.513L603.767 373H604.973L606.395 380.704ZM614.22 371.092C613.98 371.092 613.794 371.008 613.662 370.84C613.53 370.672 613.482 370.468 613.518 370.228C613.554 369.988 613.668 369.784 613.86 369.616C614.052 369.448 614.274 369.364 614.526 369.364C614.766 369.364 614.958 369.448 615.102 369.616C615.246 369.784 615.294 369.988 615.246 370.228C615.198 370.48 615.078 370.69 614.886 370.858C614.694 371.014 614.472 371.092 614.22 371.092ZM612.906 382H611.718L613.302 373H614.49L612.906 382ZM619.603 382.216C618.307 382.216 617.269 381.736 616.489 380.776C615.733 379.816 615.475 378.658 615.715 377.302C615.955 375.994 616.585 374.914 617.605 374.062C618.637 373.21 619.825 372.784 621.169 372.784C622.045 372.784 622.813 372.994 623.473 373.414C624.133 373.834 624.589 374.404 624.841 375.124L623.815 375.646C623.623 375.106 623.287 374.686 622.807 374.386C622.327 374.086 621.745 373.936 621.061 373.936C620.053 373.936 619.147 374.272 618.343 374.944C617.563 375.616 617.083 376.444 616.903 377.428C616.735 378.46 616.921 379.324 617.461 380.02C618.001 380.716 618.781 381.064 619.801 381.064C620.473 381.064 621.097 380.902 621.673 380.578C622.261 380.254 622.735 379.816 623.095 379.264L624.049 379.894C623.593 380.626 622.975 381.196 622.195 381.604C621.415 382.012 620.551 382.216 619.603 382.216ZM630.922 372.784C632.278 372.784 633.31 373.252 634.018 374.188C634.738 375.136 634.966 376.252 634.702 377.536C634.678 377.704 634.63 377.89 634.558 378.094H626.692C626.656 379.006 626.908 379.732 627.448 380.272C628 380.8 628.75 381.064 629.698 381.064C631.078 381.064 632.14 380.548 632.884 379.516L633.82 380.128C633.4 380.776 632.794 381.286 632.002 381.658C631.222 382.03 630.4 382.216 629.536 382.216C628.144 382.216 627.076 381.748 626.332 380.812C625.588 379.876 625.336 378.712 625.576 377.32C625.816 375.988 626.434 374.902 627.43 374.062C628.462 373.21 629.626 372.784 630.922 372.784ZM626.872 376.942H633.568C633.64 375.982 633.43 375.244 632.938 374.728C632.446 374.2 631.75 373.936 630.85 373.936C629.914 373.936 629.086 374.212 628.366 374.764C627.646 375.304 627.148 376.03 626.872 376.942Z" fill="#121212" fill-opacity="0.9"/>
<rect x="200.5" y="454.5" width="47" height="47" rx="23.5" stroke="#121212"/>
<path d="M228.442 473.458C228.442 472.905 228.89 472.458 229.442 472.458C229.994 472.458 230.442 472.905 230.442 473.458C230.442 474.01 229.994 474.458 229.442 474.458C228.89 474.458 228.442 474.01 228.442 473.458Z" fill="#121212"/>
<path fill-rule="evenodd" clip-rule="evenodd" d="M224.442 473.708C221.819 473.708 219.692 475.834 219.692 478.458C219.692 481.081 221.819 483.208 224.442 483.208C227.065 483.208 229.192 481.081 229.192 478.458C229.192 475.834 227.065 473.708 224.442 473.708ZM221.192 478.458C221.192 476.663 222.647 475.208 224.442 475.208C226.237 475.208 227.692 476.663 227.692 478.458C227.692 480.252 226.237 481.708 224.442 481.708C222.647 481.708 221.192 480.252 221.192 478.458Z" fill="#121212"/>
<path fill-rule="evenodd" clip-rule="evenodd" d="M229.7 469.291C226.234 468.903 222.65 468.903 219.184 469.291C217.172 469.515 215.547 471.1 215.311 473.123C214.896 476.667 214.896 480.248 215.311 483.792C215.547 485.815 217.172 487.4 219.184 487.625C222.65 488.012 226.234 488.012 229.7 487.625C231.712 487.4 233.337 485.815 233.573 483.792C233.988 480.248 233.988 476.667 233.573 473.123C233.337 471.1 231.712 469.515 229.7 469.291ZM219.35 470.781C222.706 470.406 226.178 470.406 229.534 470.781C230.864 470.93 231.929 471.98 232.083 473.297C232.484 476.726 232.484 480.189 232.083 483.618C231.929 484.936 230.864 485.985 229.534 486.134C226.178 486.509 222.706 486.509 219.35 486.134C218.02 485.985 216.955 484.936 216.801 483.618C216.4 480.189 216.4 476.726 216.801 473.297C216.955 471.98 218.02 470.93 219.35 470.781Z" fill="#121212"/>
<rect x="280.5" y="454.5" width="47" height="47" rx="23.5" stroke="#121212"/>
<path fill-rule="evenodd" clip-rule="evenodd" d="M303.75 468C298.365 468 294 472.365 294 477.75C294 483.135 298.365 487.5 303.75 487.5C309.135 487.5 313.5 483.135 313.5 477.75C313.5 472.365 309.135 468 303.75 468ZM295.5 477.75C295.5 473.194 299.194 469.5 303.75 469.5C308.306 469.5 312 473.194 312 477.75C312 482.306 308.306 486 303.75 486C302.893 486 302.066 485.869 301.289 485.627C301.711 484.963 302.047 484.248 302.289 483.499L302.805 481.522C303.019 481.826 303.305 482.073 303.638 482.239C303.971 482.405 304.34 482.485 304.711 482.472C307.247 482.472 309.028 480.168 309.028 477.306C309.028 474.557 306.783 472.503 303.904 472.503C300.317 472.503 298.412 474.913 298.412 477.532C298.412 478.755 299.059 480.269 300.098 480.756C300.252 480.827 300.353 480.756 300.377 480.643C300.401 480.53 300.543 479.961 300.608 479.7C300.619 479.658 300.619 479.614 300.608 479.573C300.598 479.532 300.578 479.493 300.549 479.462C300.156 478.909 299.949 478.246 299.955 477.568C299.953 477.081 300.05 476.599 300.24 476.15C300.429 475.702 300.708 475.297 301.059 474.959C301.41 474.622 301.825 474.359 302.281 474.187C302.736 474.015 303.221 473.937 303.708 473.958C304.163 473.931 304.619 473.999 305.047 474.159C305.474 474.318 305.864 474.565 306.191 474.884C306.518 475.202 306.775 475.585 306.945 476.008C307.116 476.432 307.196 476.886 307.181 477.342C307.181 479.586 306.041 481.148 304.569 481.148C304.378 481.162 304.188 481.131 304.012 481.056C303.837 480.981 303.682 480.865 303.56 480.718C303.439 480.571 303.355 480.396 303.316 480.21C303.277 480.023 303.283 479.829 303.334 479.646C303.418 479.295 303.529 478.935 303.638 478.583C303.835 477.945 304.022 477.338 304.022 476.879C304.043 476.73 304.031 476.578 303.987 476.434C303.944 476.289 303.87 476.156 303.77 476.044C303.67 475.931 303.547 475.841 303.409 475.78C303.271 475.719 303.122 475.689 302.972 475.691C302.14 475.691 301.469 476.558 301.469 477.71C301.463 478.117 301.54 478.521 301.695 478.898L300.715 483.054C300.595 483.839 300.595 484.638 300.714 485.424C300.064 485.166 299.454 484.828 298.897 484.422C297.92 483.708 297.103 482.785 296.513 481.709C296.281 481.286 296.087 480.846 295.933 480.395C295.652 479.564 295.5 478.675 295.5 477.75Z" fill="#121212"/>
<rect x="360.5" y="454.5" width="47" height="47" rx="23.5" stroke="#121212"/>
<path fill-rule="evenodd" clip-rule="evenodd" d="M382.238 469.538C383.222 468.553 384.558 468 385.95 468H388.65C389.064 468 389.4 468.336 389.4 468.75V472.35C389.4 472.764 389.064 473.1 388.65 473.1H385.95C385.91 473.1 385.872 473.116 385.844 473.144C385.816 473.172 385.8 473.21 385.8 473.25V475.2H388.65C388.881 475.2 389.099 475.306 389.241 475.488C389.383 475.67 389.434 475.908 389.378 476.132L388.478 479.732C388.394 480.066 388.094 480.3 387.75 480.3H385.8V486.75C385.8 487.164 385.464 487.5 385.05 487.5H381.45C381.036 487.5 380.7 487.164 380.7 486.75V480.3H378.75C378.336 480.3 378 479.964 378 479.55V475.95C378 475.536 378.336 475.2 378.75 475.2H380.7V473.25C380.7 471.858 381.253 470.522 382.238 469.538ZM385.95 469.5C384.955 469.5 384.002 469.895 383.298 470.598C382.595 471.302 382.2 472.255 382.2 473.25V475.95C382.2 476.364 381.864 476.7 381.45 476.7H379.5V478.8H381.45C381.864 478.8 382.2 479.136 382.2 479.55V486H384.3V479.55C384.3 479.136 384.636 478.8 385.05 478.8H387.164L387.689 476.7H385.05C384.636 476.7 384.3 476.364 384.3 475.95V473.25C384.3 472.812 384.474 472.393 384.783 472.083C385.093 471.774 385.512 471.6 385.95 471.6H387.9V469.5H385.95Z" fill="#121212"/>
<rect x="440.5" y="454.5" width="47" height="47" rx="23.5" stroke="#121212"/>
<path fill-rule="evenodd" clip-rule="evenodd" d="M466.772 469.081C467.28 468.994 467.849 468.965 468.385 469.055C469.342 469.217 470.226 469.662 470.924 470.329C471.381 470.339 471.83 470.249 472.227 470.121C472.563 470.012 472.847 469.881 473.046 469.778C473.145 469.726 473.221 469.682 473.271 469.652C473.296 469.638 473.314 469.626 473.325 469.619L473.334 469.613C473.631 469.416 474.026 469.454 474.279 469.706C474.532 469.957 474.573 470.352 474.376 470.65C474.169 470.965 473.88 471.527 473.557 472.157C473.506 472.256 473.455 472.357 473.402 472.459C473.217 472.819 473.027 473.182 472.85 473.495C472.739 473.69 472.62 473.889 472.5 474.061V474.335C472.508 475.341 472.392 476.341 472.158 477.314C472.011 477.927 471.817 478.528 471.576 479.114C470.954 480.63 470.036 482.008 468.875 483.166C467.714 484.323 466.334 485.238 464.816 485.857C463.299 486.475 461.675 486.785 460.037 486.768C457.662 486.77 455.338 486.086 453.343 484.798C453.049 484.608 452.926 484.241 453.045 483.912C453.164 483.583 453.495 483.381 453.842 483.424C454.143 483.461 454.445 483.479 454.748 483.478C455.835 483.475 456.902 483.235 457.876 482.782C457.566 482.641 457.271 482.467 456.994 482.263C456.183 481.661 455.579 480.821 455.267 479.86C455.186 479.61 455.241 479.336 455.413 479.137C455.416 479.134 455.419 479.13 455.422 479.127C455.239 478.963 455.067 478.785 454.909 478.593C454.198 477.731 453.806 476.65 453.8 475.532L453.8 475.528L453.8 475.478C453.8 475.212 453.941 474.966 454.17 474.831C454.228 474.797 454.29 474.772 454.353 474.754C454.015 474.079 453.839 473.334 453.84 472.578C453.84 471.721 454.063 470.879 454.489 470.135C454.612 469.921 454.833 469.781 455.08 469.761C455.326 469.741 455.567 469.843 455.722 470.035C456.685 471.221 457.886 472.192 459.248 472.883C459.948 473.239 460.683 473.516 461.439 473.713C461.862 473.823 462.293 473.907 462.728 473.966C462.709 473.243 462.851 472.52 463.151 471.852C463.591 470.872 464.343 470.066 465.29 469.56C465.692 469.345 466.224 469.175 466.772 469.081ZM455.493 476.628C455.623 476.993 455.816 477.336 456.066 477.639C456.557 478.234 457.239 478.642 457.996 478.792C458.334 478.86 458.582 479.147 458.599 479.491C458.616 479.834 458.397 480.145 458.068 480.246C457.796 480.329 457.517 480.386 457.234 480.418C457.421 480.659 457.64 480.874 457.888 481.058C458.449 481.474 459.126 481.705 459.825 481.718C460.141 481.724 460.42 481.929 460.521 482.23C460.622 482.53 460.523 482.861 460.274 483.057C459.225 483.883 458.011 484.459 456.726 484.753C457.791 485.094 458.909 485.269 460.039 485.268L460.048 485.268C461.488 485.283 462.917 485.011 464.25 484.468C465.584 483.924 466.796 483.121 467.816 482.104C468.835 481.087 469.642 479.877 470.189 478.544C470.4 478.03 470.57 477.502 470.7 476.964C470.906 476.108 471.007 475.228 471 474.344L471 474.338V473.808C471 473.626 471.066 473.451 471.186 473.314C471.255 473.235 471.376 473.052 471.545 472.754C471.706 472.471 471.884 472.131 472.069 471.772C472.08 471.75 472.091 471.729 472.102 471.707C471.623 471.811 471.079 471.865 470.509 471.804C470.329 471.784 470.162 471.7 470.039 471.567C469.536 471.021 468.866 470.658 468.135 470.534C467.81 470.48 467.418 470.492 467.025 470.559C466.598 470.633 466.226 470.761 465.997 470.883C465.343 471.232 464.823 471.789 464.52 472.466C464.216 473.143 464.145 473.901 464.319 474.622C464.375 474.852 464.318 475.095 464.167 475.277C464.016 475.459 463.788 475.559 463.552 475.547C462.709 475.504 461.874 475.376 461.061 475.165C460.202 474.941 459.366 474.625 458.569 474.221C457.396 473.625 456.328 472.848 455.404 471.92C455.361 472.136 455.34 472.356 455.34 472.578L455.34 472.579C455.339 473.13 455.474 473.673 455.733 474.158C455.993 474.644 456.368 475.059 456.826 475.364C457.104 475.55 457.226 475.897 457.125 476.215C457.024 476.534 456.724 476.747 456.39 476.738C456.087 476.73 455.787 476.693 455.493 476.628Z" fill="#121212"/>
<rect x="520.5" y="454.5" width="47" height="47" rx="23.5" stroke="#121212"/>
<path fill-rule="evenodd" clip-rule="evenodd" d="M538.381 479.77C538.424 479.784 538.469 479.795 538.513 479.801C538.561 479.914 538.623 480.061 538.696 480.232C538.873 480.649 539.111 481.214 539.357 481.804C539.86 483.005 540.366 484.244 540.478 484.599C540.617 485.037 540.763 485.335 540.923 485.538C541.006 485.643 541.101 485.735 541.213 485.805C541.269 485.84 541.329 485.869 541.391 485.89C541.394 485.891 541.396 485.892 541.399 485.893C541.719 486.014 542.011 485.963 542.194 485.902C542.291 485.869 542.37 485.829 542.426 485.797C542.455 485.78 542.479 485.765 542.498 485.752L542.503 485.749L545.329 483.987L548.594 486.489C548.642 486.526 548.694 486.557 548.75 486.582C549.142 486.753 549.522 486.812 549.879 486.764C550.236 486.715 550.519 486.565 550.73 486.396C550.936 486.231 551.076 486.046 551.163 485.909C551.208 485.839 551.241 485.777 551.265 485.729C551.277 485.705 551.286 485.685 551.294 485.668L551.303 485.646L551.306 485.638L551.308 485.634L551.309 485.632L551.309 485.631C551.326 485.588 551.34 485.544 551.349 485.498L554.329 470.473C554.338 470.425 554.343 470.376 554.343 470.327C554.343 469.887 554.177 469.468 553.788 469.215C553.454 468.998 553.083 468.988 552.849 469.006C552.596 469.025 552.362 469.088 552.205 469.138C552.123 469.164 552.055 469.189 552.006 469.208C551.981 469.217 551.961 469.226 551.945 469.232L551.934 469.237L535.22 475.793L535.218 475.794C535.207 475.798 535.194 475.803 535.178 475.809C535.145 475.822 535.102 475.84 535.051 475.863C534.952 475.907 534.814 475.977 534.672 476.075C534.444 476.23 533.922 476.656 534.01 477.36C534.08 477.921 534.464 478.265 534.699 478.431C534.827 478.522 534.949 478.587 535.038 478.629C535.08 478.649 535.165 478.684 535.203 478.699L535.212 478.703L538.381 479.77ZM552.519 470.618L552.517 470.619C552.508 470.622 552.5 470.626 552.491 470.629L535.757 477.194C535.749 477.197 535.74 477.2 535.731 477.204L535.722 477.207C535.711 477.211 535.693 477.219 535.67 477.229C535.658 477.235 535.644 477.241 535.63 477.248C535.649 477.258 535.667 477.268 535.683 477.275C535.698 477.282 535.71 477.287 535.717 477.29L538.859 478.348C538.917 478.367 538.97 478.393 539.02 478.424L549.396 472.349L549.406 472.344C549.414 472.339 549.423 472.334 549.435 472.327C549.459 472.313 549.491 472.296 549.53 472.276C549.602 472.239 549.717 472.185 549.847 472.145C549.937 472.117 550.204 472.038 550.492 472.131C550.67 472.188 550.854 472.31 550.974 472.518C551.033 472.621 551.065 472.725 551.08 472.82C551.121 472.969 551.115 473.117 551.083 473.244C551.014 473.519 550.821 473.733 550.645 473.897C550.495 474.037 548.55 475.913 546.631 477.765C545.674 478.688 544.726 479.602 544.018 480.286L543.553 480.735L549.425 485.237C549.56 485.285 549.639 485.282 549.676 485.277C549.72 485.271 549.756 485.255 549.793 485.225C549.834 485.192 549.87 485.148 549.896 485.106L549.898 485.104L552.788 470.531C552.745 470.541 552.702 470.554 552.66 470.567C552.613 470.582 552.574 470.596 552.548 470.606C552.535 470.611 552.526 470.615 552.521 470.617L552.519 470.618ZM544.058 483.012L542.886 482.114L542.602 483.919L544.058 483.012ZM541.811 480.331L542.976 479.207C543.685 478.523 544.632 477.609 545.589 476.685L546.562 475.747L540.042 479.564L540.077 479.646C540.254 480.065 540.494 480.633 540.741 481.225C540.927 481.668 541.12 482.134 541.297 482.566L541.58 480.766C541.607 480.592 541.692 480.442 541.811 480.331Z" fill="#121212"/>
</svg>
